<svg width="173" height="226" viewBox="0 0 173 226" xmlns="http://www.w3.org/2000/svg"><title>Doctrine</title><g fill-rule="nonzero" fill="none"><path d="M70.627 5.768l.014-.014 76.003 72.514-.014-.005c12.708 12.458 21.667 28.939 24.696 47.797l1.09 13.66c0 46.226-36.497 84.206-82.687 86.047C43.54 227.607 4.136 192.65.46 146.57c-3.336-41.792 23.793-79.21 63.11-89.923l-21.97-20.716.027-.028a20.843 20.843 0 0 1-6.266-13.329C34.467 11.385 42.567 1.487 53.713.15c6.427-.771 12.545 1.463 16.914 5.619z" fill="#FC6A31"/><path d="M85.506 84.696l44.669 44.912a12.46 12.46 0 0 1 4.108 7.424l.159 1.983a12.48 12.48 0 0 1-4.248 9.391L85.228 193.78a14.03 14.03 0 0 1-9.399 4.12c-7.517.298-13.93-5.377-14.53-12.859a13.939 13.939 0 0 1 4.126-11.063l-.006-.006 22.787-22.786H40.902v-.018c-6.551.076-12.08-4.938-12.604-11.51-.534-6.69 4.31-12.61 10.974-13.41.455-.054.907-.083 1.355-.089l.158.002c15.599.053 31.198.022 46.797.022L66.128 104.73a13.882 13.882 0 0 1-4.685-9.342c-.596-7.455 4.814-14.05 12.258-14.942a13.97 13.97 0 0 1 11.805 4.25z" fill="#FFF"/></g></svg>