<?xml version="1.0" encoding="UTF-8"?>
<svg width="678.13pt" height="186.8pt" version="1.1" viewBox="0 0 239.23 65.901" xmlns="http://www.w3.org/2000/svg" xmlns:cc="http://creativecommons.org/ns#" xmlns:dc="http://purl.org/dc/elements/1.1/" xmlns:rdf="http://www.w3.org/1999/02/22-rdf-syntax-ns#">
 <metadata>
  <rdf:RDF>
   <cc:Work rdf:about="">
    <dc:format>image/svg+xml</dc:format>
    <dc:type rdf:resource="http://purl.org/dc/dcmitype/StillImage"/>
    <dc:title/>
   </cc:Work>
  </rdf:RDF>
 </metadata>
 <g transform="translate(-27.892 -114.87)" fill="#102d6b" stroke-width=".2286" aria-label="BeachcasTs">
  <path d="m86.868 166.81q0 0.0793-0.03962 0.11887 0.03962-0.0396 0.03962-0.11887zm0.95096-25.636q0-0.0793 0.03962-0.11887-0.03962 0.0396-0.03962 0.11887zm6.9341 18.504q-0.03962-0.43586 0.43586-0.99059-0.11887 0.31699-0.23774 0.55473-0.11887 0.19812-0.19812 0.39624zm-10.936-7.0926q-0.27736 0.39623-0.35661 0.63397h-0.11887q0-0.0792-0.03962-0.15849 0-0.11887 0.03962-0.19812 0.07925-0.31698 0.47548-0.31698zm-2.4567 7.7266q0-0.0792 0.03962-0.11887h-0.03962q-0.03962 0.0396-0.03962 0.11887zm4.7944-8.6379q-0.03962 0.0396-0.07925 0.0396 0 0-0.03962 0.0396v0.0396q0.07925-0.0396 0.15849-0.11887zm3.8435-8.5587q-0.07925-0.15849-0.07925-0.15849-0.03962 0.0396-0.11887 0.0793-0.03962 0-0.03962 0.0396 0 0.0793 0.03962 0.11887 0.03962-0.0396 0.07925-0.0396 0.03962-0.0396 0.07925-0.0793zm2.3774 18.861q-0.15849 0.19811-0.23774 0.31699-0.07925 0.0792-0.15849 0.19811-0.07925-0.19811 0.03962-0.27736 0.11887-0.11887 0.35661-0.23774zm2.1397-4.2793-0.35661 0.71322h-0.11887l0.23774-0.71322h0.11887zm-0.6736 1.3076-0.47548 0.71322q0.07925-0.47548 0.31699-0.71322h0.11887zm-7.3303-8.7568q-0.43586 0.19811-0.43586 0.35661 0 0.11887 0.07925 0.27736h0.03962q0.03962 0 0.03962 0 0.03962-0.0396 0.07925-0.0396 0.07925-0.11887 0.07925-0.23774 0.03962-0.11887 0.11887-0.31699zm2.6944-5.9831h-0.11887q0.03962 0.31699-0.15849 0.63398-0.19812 0.31698 0.07925 0.59435 0.07925-0.31699 0.15849-0.63398 0.07925-0.35661 0.15849-0.67359zm-4.6359 11.768q0.19812-0.59436 0.39623-1.1095 0.19812-0.55473 0.19812-1.0698-0.23774 0.55473-0.47548 1.1094-0.19812 0.51511-0.11887 1.0698zm10.461-8.4794q0.43586 0 0.59435-0.0793 0.19812-0.0793 0.39623-0.39624 0.39623-0.63397-0.23774-1.1491-0.19812 0.43585-0.39623 0.83209-0.15849 0.35661-0.35661 0.75284zm-5.8643-4.7944q-1.1491 0.59435-1.3868 1.268-0.19812 0.6736-0.23774 1.4661 0 0.19812 0.03962 0.39623 0.07925 0.1585 0.15849 0.35661 0.59435-0.75284 0.87172-1.5453 0.27736-0.83209 0.59435-1.6246 0.03962-0.0793 0-0.11887-0.03962-0.0396-0.03962-0.11887zm1.1887 5.8246q0.11887-0.0396 0.23774-0.0396t0.19812-0.0793q0.43586-0.35661 0.87172-0.71322 0.47548-0.35661 0.91134-0.75284 0.55473-0.51511 1.0698-1.0302 0.5151-0.51511 1.0698-1.0698 0.59435-0.59435 0.95096-1.2283 0.39623-0.63397 0.47548-1.3472 0.03962-0.27736-0.15849-0.47548 0.19812-0.0792 0.43586-0.15849-0.27736-0.63397-1.1491-0.23774-0.75284 0.31699-1.5057 0.71322-0.71322 0.35661-1.3868 0.91134-0.15849 0.11887-0.35661 0.27736-0.15849 0.1585-0.23774 0.35661-0.19812 0.47549-0.43586 0.95097-0.19812 0.47548-0.27736 0.91133-0.03962 0.39624-0.11887 0.79247-0.07925 0.35661-0.15849 0.75285-0.07925 0.35661-0.19812 0.71322-0.07925 0.35661-0.15849 0.75284zm-4.1208 18.465h0.03962q0.03962-0.0396 0.03962-0.11887l1.3076-1.783t0.11887-0.11887q0.19812-0.19812 0.43586-0.39623 0.23774-0.23774 0.43586-0.43586 0.11887-0.19812 0.31699-0.39624 0.19812-0.23774 0.19812-0.43585 0-0.51511 0.31699-0.79247t0.71322-0.51511q0.39623-0.19811 0.47548-0.63397l0.11887-1.1887q0.07925-0.31699 0.19812-0.43586 0.11887-0.15849 0.43586-0.31699 0.03962 0 0.07925 0 0.03962-0.0396 0.07925-0.0396 0.03962 0 0.03962-0.0396 0.07925-0.19812 0.11887-0.35661 0.03962-0.19812 0.15849-0.35662 0.43586-0.63397 0.15849-0.99058 0.23774-0.23774 0.43586-0.43586 0.19812-0.23774 0.39623-0.43586 0.11887-0.19811 0-0.31698-0.19812-0.19812-0.23774-0.43586-0.03962-0.27736 0.27736-0.63398h0.23774q0.07925-0.27736 0.15849-0.5151 0.07925-0.27736 0.15849-0.5151 0.07925-0.23774 0-0.47549-0.03962-0.23774 0.03962-0.47548 0.07925-0.35661 0.07925-0.63397 0-0.31699-0.35661-0.47548-0.03962 0-0.03962-0.0793-0.19812-0.35661-0.39623-0.35661t-0.59435 0.35661q-0.39623 0.31699-0.75284 0.59435-0.35661 0.27737-0.75284 0.55473-0.31699 0.19812-0.63398 0.35661-0.31699 0.11887-0.59435 0.0396-0.31699-0.0792-0.87172 0.0396-0.31699 0.87171-0.59435 1.7434-0.27736 0.83209-0.59435 1.7038-0.19812 0.67359-0.35661 1.3868-0.11887 0.6736-0.71322 1.3472-0.07925 0.0793 0 0.15849 0.07925 0.27737-0.03962 0.55473-0.11887 0.27737-0.19812 0.59435-0.07925 0.31699-0.15849 0.59435-0.07925 0.27737-0.15849 0.59436-0.07925 0.35661-0.15849 0.75284-0.07925 0.35661-0.27736 0.71322-0.07925 0.19812-0.19812 0.39624-0.07925 0.15849-0.15849 0.35661-0.07925 0.35661-0.15849 0.71322-0.07925 0.35661-0.31699 0.75284-0.07925 0.11887-0.07925 0.39624 0.11887 0.75284-0.15849 1.5453-0.07925 0.23774-0.03962 0.47548 0.07925 0.23774 0.11887 0.47548 0.15849-0.15849 0.27736-0.27736t0.19812-0.19812q0.55473-0.31699 0.87172-0.71322 0.35661-0.43586 0.71322-0.87172zm13.115-24.289-0.11887 0.35661h-0.11887q0.07925-0.0792 0.31699-0.23774zm-2.6151 2.1q0.11887-0.11887 0.19812-0.23774 0.11887-0.11887 0.19812-0.23774 0.11887-0.0792 0.23774-0.15849 0.15849-0.0792 0.23774-0.19812 0.31699-0.39623 0.59435-0.79247 0.31699-0.39623 0.59435-0.83209 0.11887-0.15849 0.15849-0.27736 0.07925-0.1585 0.15849-0.31699-0.43586 0.35661-0.59435 0.71322-0.31699 0.47548-0.71322 0.91134t-0.59435 0.95096q-0.35661 0.19812-0.31699 0.43586zm-7.053 20.248q0 0.0792-0.03962 0.11887h0.03962q0.03962-0.0396 0.03962-0.11887h0.03962-0.03962zm8.4794-19.851q-0.03962 0.0792-0.03962 0.11887 0 0.0396-0.03962 0.11887h0.11887q0-0.0793-0.03962-0.11887 0-0.0396 0-0.11887zm-8.7172 21.04q0.31699-0.31699 0.59435-0.63397 0.31699-0.35662 0.59435-0.6736 0.95096-1.1095 1.6642-2.2982 0.75284-1.1887 1.4661-2.3774 0.07925-0.0792 0.15849-0.15849 0.11887-0.11887 0.19812-0.19812-0.55473 0.91134-1.1095 1.8623-0.5151 0.91134-1.1095 1.8227-0.35661 0.59435-0.83209 1.1887-0.43586 0.55473-0.87172 1.1095-0.23774 0.31699-0.47548 0.63397-0.23774 0.31699-0.43586 0.6736-0.23774 0.51511-0.95096 1.1095-0.71322 0.59435-1.3076 0.83209-0.19812 0.0793-0.31699 0.19812-0.11887 0.11887-0.23774 0.31698-0.55473 0.71322-1.4661 1.2283-0.11887 0.0793-0.27736 0.11887-0.11887 0.0396-0.15849 0-0.19812-0.15849-0.39623-0.0396-0.15849 0.0792-0.35661 0.19811-0.47548 0.31699-1.0302 0.59435-0.5151 0.27737-1.1491 0.43586 0.15849-0.15849 0.23774-0.23774 0.11887-0.0793 0.23774-0.19812-0.19812 0-0.35661-0.0792-0.15849-0.0793-0.47548 0.0792 0.03962 0.11887 0.03962 0.23774 0.03962 0.11887 0.07925 0.31699-0.19812 0.0793-0.35661 0.1585-0.15849 0.11887-0.31699 0.0792-0.11887-0.0396-0.11887-0.11887 0-0.0396 0.03962-0.15849 0.07925-0.0793 0.11887-0.1585 0.07925-0.0792 0.03962-0.15849-0.19812-0.0396-0.43586-0.0396-0.23774-0.0396-0.43586-0.0792 0-0.0793 0.03962-0.11887 0.35661-0.11887 0.71322-0.23774 0.35661-0.15849 0.71322-0.23774 0.19812-0.0793 0.31699-0.11887 0.15849-0.0793 0.23774-0.27736 0.23774-0.51511 0.83209-0.75285 0.19812-0.0793 0.31699-0.15849 0.15849-0.11887 0.35661-0.19812l-0.03962-0.0396v0.0396q-0.03962-0.0793-0.07925-0.11887-0.03962-0.0793-0.11887-0.15849-0.39623 0.5151-0.91134 0.63397-0.23774 0.0793-0.31699-0.0396 0 0-0.07925-0.0396-0.03962 0-0.03962-0.0396-0.31699 0.27736-0.55473 0.15849-0.19812-0.11887-0.43586-0.15849-0.19812 0-0.39623 0.0396-0.15849 0-0.31699 0.35661-0.07925-0.11887-0.15849-0.19811-0.03962-0.0793-0.11887-0.1585-0.75284 0.43586-1.3472 0.87172-0.27736-0.11887-0.55473-0.19812-0.23774-0.11887-0.19812-0.5151 0.03962-0.0793-0.11887-0.0793-0.11887 0-0.23774-0.0396 0.07925-0.27737 0.15849-0.51511 0.07925-0.27736-0.03962-0.5151-0.03962-0.0793 0-0.23774 0.03962-0.1585 0.11887-0.23774 0.23774-0.23774 0.27736-0.47548 0.07925-0.27737 0.11887-0.47548 0-0.47549 0.15849-0.95097t0.27736-0.95096q0.19812-0.63397 0.59435-1.0698 0.15849-0.15849 0.15849-0.27736 0-0.1585 0.15849-0.31699 0.07925-0.11887 0.07925-0.23774 0.03962-0.1585 0.27736-0.23774 0.03962 0 0.07925-0.0396 0.03962-0.0792 0-0.0792-0.15849-0.19812-0.03962-0.39624 0.11887-0.23774 0.11887-0.43585 0.03962-0.1585 0.03962-0.31699 0.03962-0.1585-0.03962-0.27737-0.07925-0.27736-0.07925-0.31698 0.03962-0.0793 0.23774-0.27737l0.59435-0.59435q-0.27736-0.27736-0.27736-0.43586 0-0.15849 0.27736-0.59435 0.39623-0.67359 0.39623-1.2283-0.03962-0.31699 0-0.6736t0.47548-0.6736v-0.0396q-0.03962-0.27737 0.07925-0.51511t0.27736-0.47548q0.19812-0.27736 0.35661-0.5151 0.15849-0.27737 0.19812-0.59435-0.07925 0.11887-0.15849 0.19811-0.03962 0.0792-0.11887 0.1585-0.07925-0.43586 0.11887-0.79247 0.19812-0.39623 0.43586-0.83209-0.03962 0.19812-0.03962 0.43586 0 0.19811 0 0.47548l0.19812-0.19812q-0.11887-0.59435 0.35661-1.3076 0.19812-0.19812 0.31699-0.47548 0.15849-0.27737 0.07925-0.55473-0.11887 0.0396-0.27736 0.0793-0.11887 0-0.23774 0.0396-0.07925-0.0793-0.07925-0.11887 0.07925-0.23774 0.11887-0.47548t0.47548-0.35661q0.11887-0.0396 0.07925-0.19812-0.03962-0.15849-0.23774-0.31699 0.15849-0.23774 0.23774-0.43586 0.11887-0.23774 0.43586-0.43585 0.11887-0.0793 0.19812-0.23774 0.07925-0.19812 0.15849-0.35661 0.03962-0.0793 0.03962-0.11887 0-0.0396 0.03962-0.11887 0 0.0792 0 0.11887 0.03962 0.0396 0.03962 0.11887-0.15849-0.23774-0.03962-0.51511 0.11887-0.27736 0.19812-0.59435 0.19812-0.59435 0.35661-1.1887t0.39623-1.1887q0.07925-0.31699 0.27736-0.63398 0.19812-0.35661 0.39623-0.6736 0.19812-0.27736 0.31699-0.5151t-0.03962-0.47548q-0.07925-0.11887 0-0.27737 0.19812-0.5151 0.43586-0.99058 0.23774-0.51511 0.43586-1.0302 0.03962-0.0396 0.03962-0.11887 0.11887-0.19812 0.19812-0.39623 0.11887-0.23775 0.19812-0.43586 0.15849-0.39624 0.27736-0.79247 0.15849-0.39623 0.35661-0.79247 0.23774-0.35661 0.5151-0.5151 0.19812-0.0793 0.31699 0.0396 0.11887 0.0793 0.15849 0.23774 0.03962 0.15849 0.03962 0.31699 0.03962 0.15849-0.03962 0.35661-0.19812 0.5151-0.43586 1.0302-0.19812 0.47548-0.39624 1.0302 0.11887 0.11887 0.35661 0.23774-0.03962 0.0396-0.03962 0.11887 0-0.0793 0.03962-0.11887h0.07925q0.19812-0.1585 0.27736-0.39624 0.07925-0.27736 0.43586-0.35661 0.11887-0.23774 0.27736-0.47548t0.31699-0.47548q0.19812-0.43586 0.39623-0.83209 0.23774-0.39624 0.47548-0.83209-0.07925 0.55472-0.39623 1.1094-0.31699 0.55473-0.35661 1.1491 0.39623-0.23774 0.47548-0.5151 0.07925-0.31699 0.23774-0.59435 0.15849-0.31699 0.23774-0.59436 0.11887-0.31698 0.27736-0.63397h1.6642v1.2283q0.15849-0.0793 0.31699-0.0793 0.15849-0.0396 0.31699-0.11887 1.0302-0.31699 1.9812-0.51511 0.99059-0.19811 1.9019-0.11887 0.39623 0 0.55473-0.0792 0.75284-0.23774 1.3076-0.0793 0.59436 0.11887 1.1491 0.31699 0.23774 0.0792 0.43585 0.19811 0.23774 0.11887 0.47549 0.19812 0.23774 0.0793 0.39623 0.19812 0.15849 0.11887 0.23774 0.39623 0.0793 0.23774 0.19812 0.43586 0.11887 0.15849 0.0396 0.47548-0.0396 0.0793-0.11887 0.11887-0.0396 0.0396-0.0793 0.11887v-0.0396l-0.11887 0.35661q-0.0396 0.11887-0.0792 0.23774 0 0.11887-0.0793 0.19812-0.83209 0.95096-1.5453 1.9812-0.71323 1.0302-1.6642 1.9415-0.15849 0.19812-0.35661 0.35662-0.19812 0.11887-0.39623 0.27736 0.03962-0.0396 0.03962-0.11887v0.0396h0.03962q-0.11887 0.0793-0.27736 0.19812-0.11887 0.0793-0.15849 0.15849-0.11887 0.39624-0.47548 0.63398-0.31699 0.23774-0.55473 0.55473v0.0792q0.27736 0.0793 0.55473 0.19812 0.27736 0.0793 0.59435 0.15849 0.11887 0.0396 0.27736 0 0.19812-0.0792 0.43586-0.11887 0.07925 0.0793 0.15849 0.19812 0.11887 0.11887 0.23774 0.23774 0.07925 0.19812 0.03962 0.31699-0.07925 0.23774-0.07925 0.39623 0.03962 0.1585 0.11887 0.35661 0.23774 0.6736 0.07925 1.4264-0.03962 0.0792-0.03962 0.15849 0 0.0793-0.07925 0.15849-0.23774 0.27737-0.35661 0.55473-0.07925 0.27736-0.15849 0.59435-0.03962 0.0793-0.11887 0.11887-0.03962 0.0396-0.07925 0.11887-0.15849 0.1585-0.31699 0.31699-0.11887 0.11887-0.23774 0.27736-0.07925-0.0792-0.15849-0.31698h0.03962-0.03962q-0.03962 0.0792-0.11887 0.11887-0.03962 0.0396-0.07925 0.11887-0.11887 0.47548-0.39623 0.95096-0.27736 0.43586-0.47548 0.87171-0.71322 1.5453-1.6642 3.0906 0.03962-0.19812 0.03962-0.35661t0.07925-0.35661q0.23774-0.75285 0.43586-1.4661 0.23774-0.75284 0.43586-1.5453-0.07925 0.0793-0.11887 0.15849-0.03962 0.0793-0.07925 0.1585-0.27736 0.63397-0.5151 1.268-0.23774 0.59435-0.47548 1.2283-0.19812 0.39624-0.47548 0.75285-0.23774 0.35661-0.39623 0.75284-0.27736 0.6736-0.63398 1.3472-0.31699 0.67359-0.63397 1.3472 0 0.11887-0.07925 0.19812-0.43586 0.43586-0.6736 0.95096-0.19812 0.47548-0.39623 0.95096-0.31699 0.6736-0.79247 1.268-0.43586 0.55473-0.87172 1.1491-0.11887 0.1585-0.19812 0.31699-0.07925 0.11887-0.15849 0.27736h-0.03962l0.03962-0.0396z"/>
  <path d="m113.94 140.42v-0.0396h0.0396-0.0396zm-8.3605 6.4982v0.0396h-0.0396 0.0396zm-2.8133-0.55473h-0.11887zm3.6454-0.87171h-0.0396zm-0.83209 1.268q0-0.0793 0.0792-0.23774-0.0792 0.15849-0.0792 0.23774zm-0.55473-5.0322q-0.0396 0.0793-0.0396 0.11887 0 0.0396-0.0396 0.11887 0.0396-0.0792 0.0396-0.11887 0-0.0396 0.0396-0.11887zm-1.6642 8.9945h0.11887q0.0793-0.1585 0.0793-0.23774h-0.0793q0 0.0792-0.0793 0.23774zm0.23774-0.87172q0.19812 0.1585-0.11887 0.35661 0.0793-0.11887 0.0793-0.19811 0-0.0793 0.0396-0.1585zm1.1095-0.5151q-0.1585 0.11887-0.1585 0.15849 0 0.0396 0.0793 0.11887 0.0396-0.11887 0.11887-0.27736zm0.59435-1.9019q-0.0793 0.31698-0.1585 0.47548 0.0793-0.1585 0.1585-0.47548zm-2.5359-1.7831q-0.19812 0.27737-0.0793 0.35661 0.1585 0.0793 0.11887 0.19812h0.11887q0-0.11887-0.0396-0.23774 0-0.11887-0.0396-0.27736zm1.2283-1.3472q-0.0396-0.0396-0.0396-0.0396 0-0.0396-0.0396-0.0792 0 0.0396-0.0396 0.0792 0 0 0 0.0396v-0.0396zm-1.1491 0.83209h-0.0396zm12.362-5.785q-0.35661 0.11887-0.15849 0.31699 0.0396 0.0792 0.0792 0.11887 0.0396 0-0.0396 0.11887-0.35661 0.55472-0.47548 0.59435-0.0396 0.0396-0.19812 0.0396 0 0.0396 0.0396 0.0793 0 0-0.11887 0.11887 0.11887 0.0396 0.27736 0.11887 0 0.35661-0.79247 0.47548 0.15849 0.0396 0.31699 0.0793 0.15849 0 0.35661 0.0792-0.15849 0.0396-0.27737 0.0793-0.0792 0-0.19811 0.0396 0.19811 0.1585 0.47548 0.31699h-0.51511q0 0.0793-0.0396 0.11887 0.15849 0.0793 0.19812 0.11887 0.0396 0.0793-0.0793 0.11887-0.11887 0.0396 0.0396 0.0793-0.15849 0.0396-0.31698 0.15849 0.11887 0.0793 0.0396 0.19812-0.0793 0.11887-0.15849 0.19812-0.0396 0.0792-0.19812 0.11887-0.15849 0.0396-0.27736 0.0396-0.39624 0.0396-0.8321 0.0396-0.39623 0-0.83209 0.0396h-0.11887q-0.39623 0.11887-0.75284 0.11887-0.31699-0.0396-0.71322 0-0.19812 0-0.35661 0.0396-0.1585 0-0.35662 0.0396h-0.23774q-0.79246-0.0792-1.5849-0.15849-0.75285-0.11887-1.5849-0.19812-0.0792 0.1585-0.15849 0.27737-0.0792 0.11887-0.11887 0.23774-0.0396 0.39623-0.23774 0.75284-0.1585 0.35661-0.27737 0.75285-0.19811 0.55472-0.35661 1.0698-0.11887 0.5151-0.31698 1.0698-0.1585 0.51511-0.35662 1.0302-0.15849 0.47548-0.31698 0.99059-0.0793 0.23774-0.0793 0.35661t-0.0396 0.23774q0 0.11887 0 0.27736 0.27736-0.0793 0.31698-0.23774 0.0793-0.15849 0.11887-0.35661 0.0396-0.19812 0.0396-0.39623 0-0.19812 0.19811-0.39624 0.31699-0.35661 0.47549-0.71322 0.15849-0.35661 0.23774-0.75285 0.0792-0.31698 0.23774-0.59435 0.15849-0.31698 0.27736-0.63397 0.0396 0.19812 0.0396 0.59435h0.11887q0.11887-0.23774 0.23774-0.47548 0.11888-0.23774 0.19812-0.43586 0.0793-0.0793 0.11887-0.0793 0.43586-0.11887 0.51511-0.0396 0.11887 0.0792 0 0.43586-0.11887 0.35661-0.27737 0.71322-0.11887 0.35661-0.19811 0.71322-0.0793 0.27737-0.1585 0.55473-0.0792 0.23774-0.15849 0.5151-0.11887 0.31699-0.19812 0.6736-0.0792 0.31699-0.19812 0.63398-0.11887 0.35661 0.1585 0.63397 0.19811 0.19812 0.0792 0.43586-0.0792 0.31699-0.15849 0.59435-0.0396 0.27736-0.11887 0.59435l-0.11887 0.71322q0.35661 0.1585 0.75285 0.11887 0.43585-0.0396 0.83209-0.0792 0.31698-0.0396 0.55472-0.0396 0.23775 0 0.47549 0.0793 0.27736 0.0793 0.59435 0.11887 0.31698 0 0.63397 0.0396-0.0793 0.0793-0.15849 0.11887-0.0396 0.0396-0.0396 0.11887-0.11887 0.19812 0.0793 0.19812 0.23774 0.0396 0.23774 0.15849 0 0.11887-0.0793 0.31699 0 0.0396 0 0.0793 0.0396 0 0.0396 0.0396h0.0793q-0.11888 0.0793-0.51511 0.27737 0.19812 0.0792 0.31699 0.19811 0.15849 0.0793 0.31699 0.1585-0.1585 0.23774-0.35662 0.23774-0.19811 0-0.35661 0.15849 0.0793 0.0793 0.19812 0.15849 0.11887 0.0396 0.23774 0.11887-0.11887 0.0792-0.27736 0.23774 0 0.0793 0.0792 0.0793 0.43586 0 0.23774 0.27737-0.11887 0.15849-0.0792 0.19811 0.0792 0.0396 0.11887 0.0793-0.19812 0.19812-0.31699 0.35661-0.11887 0.11887-0.27736 0.27736-1.268 0.23774-2.6152 0.47549 0.0396 0.23774 0.23774 0.19811 0.19812-0.0792 0.31699 0.0396-0.19812 0.0792-0.39623 0.11887-0.1585 0.0396-0.35662 0.0396-0.55472 0.0396-1.1094 0.0396-0.51511 0-1.1095 0.0396-0.43585 0.55472-0.55472 1.1887-0.11887 0.55473-0.35661 1.0698-0.19812 0.5151-0.55473 1.0698-0.19812 0.31699-0.27737 0.75285-0.0792 0.5151-0.27736 1.0302-0.15849 0.47548-0.35661 0.99058-0.15849 0.43586-0.31699 0.91134-0.15849 0.43586-0.35661 0.87172-0.0396 0.11887-0.0396 0.35661-0.0396 0.0792-0.0396 0.11887 0.0396 0.0396 0 0.11887-0.0792 0.35661-0.19811 0.71322-0.0793 0.35661-0.19812 0.71322-0.0396 0.19812 0.15849 0.31699 0.31699 0.15849 0.6736 0.15849 0.35661-0.0396 0.71322-0.11887 1.1491-0.15849 2.1397 0.35661 0.27736 0.15849 0.15849 0.31699-0.19812 0.23774-0.15849 0.47548 0.0396 0.19812-0.0396 0.39623-0.0396 0.0793-0.0396 0.1585 0 0.0396-0.0793 0.11887-0.11887 0.19811-0.19811 0.35661-0.0793 0.15849 0 0.35661 0.0396 0.0396-0.0793 0.15849-0.0396 0.0793-0.23774 0.27737h0.63397q-0.27736 0.47548-0.75284 0.5151-0.0792 0-0.15849 0.0793-0.0792 0.0396-0.11887 0.0792 0 0.1585-0.11888 0.19812-0.0792 0-0.23774 0.0396-0.31698 0.0793-0.5151 0.11887-0.11887 0.0396-0.23774 0.0396t-0.23774 0.0792q-0.19812 0.11888-0.35661 0.11888-0.11887 0.0396-0.31699 0.0396h-1.1887q-0.07925 0-0.15849-0.0396-0.03962 0-0.11887 0.0396-0.31699 0.15849-0.59435 0.11887-0.23774-0.0396-0.5151-0.0793-1.2283-0.11887-2.1793-0.59435-0.27736-0.15849-0.47548-0.5151-0.15849-0.1585-0.23774-0.43586-0.11887-0.23774-0.39623-0.19812-0.23774 0.0793-0.39623 0-0.15849-0.11887-0.35661-0.15849-0.19812-0.0396-0.27736-0.1585-0.03962-0.11887-0.11887-0.27736-0.07925-0.19812-0.07925-0.35661t0-0.35661q0.07925-0.31699 0.19812-0.59435 0.11887-0.27737 0.19812-0.59435 0.03962-0.23774 0.07925-0.47548 0.03962-0.23774 0.11887-0.47549 0.39623-0.75284 0.63398-1.4661 0.27736-0.75285 0.5151-1.5057 0-0.11887 0.19812-0.11887 0.19812-0.0396 0.15849-0.23774-0.07925-0.23774-0.03962-0.43586 0.15849-0.43586 0.27736-0.83209 0.15849-0.39624 0.35661-0.83209 0.07925-0.23774 0.15849-0.47548 0.07925-0.23774 0.27736-0.43586 0.07925-0.0396 0.07925-0.0793 0.03962-0.0396 0.07925-0.0792-0.07925-0.19812 0.03962-0.39624 0.11887-0.23774 0.23774-0.43586 0.07925-0.27736 0.19812-0.5151 0.11887-0.27736 0.23774-0.55473 0.03962-0.0793 0.07925-0.15849 0.03962-0.11887 0.03962-0.19812 0.15849-1.1094 0.71322-2.2585 0.07925-0.0793 0.07925-0.1585 0-0.11887 0.03962-0.19811 0.07925-0.19812 0.15849-0.39624 0.07925-0.23774 0.15849-0.43586l0.59435-1.4264q0.15849-0.35661 0.23774-0.71322 0.11887-0.35661 0.27736-0.71322 0.31699-0.63398 0.5151-1.4264 0.0396-0.0793 0.0396-0.19812 0.0396-0.11887 0.11887-0.19812 0.0396-0.0793 0.0396-0.19812 0.0396-0.19811 0.0793-0.35661 0.0792-0.15849 0.15849-0.35661 0.0396 0.0793 0.0396 0.23774 0.0793-0.11887-0.11887-0.19811 0.0793-0.11887 0.11887-0.23774 0.0793-0.11887 0.1585-0.23775 0 0 0.0396-0.0792 0-0.0396 0.0396-0.0396-0.27737-0.19811-0.11887-0.47548 0.19811-0.31698 0.23774-0.59435 0-0.19811 0.11887-0.19811 0.11887-0.0396 0.23774-0.11887 0-0.1585 0.0792-0.31699 0.11887-0.19812-0.0792-0.31699-0.0396 0 0-0.0793 0.0396-0.11887 0.0792-0.15849 0.35661-0.19812 0.39624-0.39623 0.0396-0.23774 0.11887-0.47548 0-0.0793-0.11887-0.0396-0.11887 0-0.0396-0.11887 0.0396-0.0793 0.11887-0.11887 0.0793-0.0396 0.1585-0.11887 0.11887-0.19812 0.19811-0.35661 0.0793-0.15849-0.0792-0.31699 0.31699-0.19811 0.43586-0.43585 0.11887-0.23775 0.19811-0.51511 0.0793 0.0396 0.11887 0.0793 0.0396 0 0.11887 0.0396 0.0396-0.11887 0.0793-0.23774 0.0396-0.11887 0.0793-0.23774h-0.27737q0.0396-0.0793 0.0396-0.11887 0-0.0793 0.0396-0.15849 0.0793-0.0793 0.11887-0.0793 0.0793-0.0396 0.15849-0.11887 0.19812-0.19812 0.23774-0.39623l-0.31698 0.15849q0.0396-0.19812 0.11887-0.27737 0.11887-0.0792 0.27736-0.15849-0.0793-0.15849-0.11887-0.27736h0.31699q0-0.19812 0.11887-0.43586 0.15849-0.27736-0.0396-0.47548 0.1585-0.11887 0.31699-0.23774 0.1585-0.11887 0.31699-0.23774-0.15849-0.23774-0.19812-0.27737-0.23774-0.39623 0.27737-0.71322 0.31698-0.19811 0.39623-0.55473 0-0.39623 0.11887-0.83209 0.0396-0.19811 0.0793-0.35661 0.0396-0.19811 0.23774-0.39623l0.47548 0.11887q0.19812 0.0396 0.43586 0.0793 0.23774 0 0.47548 0.0396 0.19811 0.0396 0.43585 0.0793 0.23775 0 0.47549 0.0396 0.27736 0.0396 0.5151 0.11887 0.23774 0.0396 0.55473-0.0793 0.35661 0.1585 0.83209 0.11887 0.15849-0.0396 0.31699 0 0.15849 0 0.31698 0.0396 0.31699 0.0396 0.63398 0.0396 0.35661-0.0396 0.63397 0.0793 0.19812 0.0792 0.43586 0.0396t0.47548-0.11887q0.47548-0.11887 0.71322 0 0.27737 0.19812 0.59435 0.11887 0.0792-0.0396 0.0792 0.0396 0.0396 0.0793-0.0792 0.1585-0.0396 0.19811 0.19812 0.19811 0.27737 0.0396 0.51511 0.11887 0.23774 0.0792 0.31698 0.35661z"/>
  <path d="m118.8 159.16v-0.0396zm-2.0208 0.39623q0.83209 0.11887 1.7038-0.19812 0.0793-0.23774 0.0396-0.43585 0-0.23775 0-0.47549t0.0396-0.43585q0.0793-0.23774 0.31699-0.47548-0.0396-0.0793-0.0792-0.1585t-0.0396-0.15849q0-0.35661 0-0.71322 0.0396-0.35661 0.0792-0.71322 0-0.0793 0.0396-0.19812 0.0792-0.11887 0.23774 0 0.0792-0.1585 0.0792-0.23774-0.27736 0.0396-0.35661-0.11887-0.0792-0.19812-0.11887-0.43586-0.19811 0.27736-0.27736 0.5151-0.0793 0.23774-0.39624 0.39624-0.19811 0.0793-0.23774 0.19812-0.0396 0.11887-0.0396 0.23774t0 0.23774-0.15849 0.19811v-0.0396 0.0396q-0.19812 0.35661-0.39624 0.71323-0.15849 0.35661-0.23774 0.75284-0.0792 0.35661-0.31698 0.75284-0.43586 0.59436 0.11887 0.71323zm3.5265-12.838q0.0396-0.0396 0.0793-0.0396 0.0396-0.0396 0.0792-0.11887 0-0.0396-0.0792-0.11887l-0.11887 0.11887q0 0.0396 0 0.0793 0.0396 0 0.0396 0.0396zm-0.95096 2.6548q0.0792-0.15849 0.15849-0.27736 0.0793-0.1585 0.15849-0.31699h-0.11887q-0.0792 0.15849-0.15849 0.31699-0.0396 0.11887 0.0396 0.27736zm0.83209-0.87171h-0.0396 0.11887zm-1.1095 5.151q0-0.0396-0.0792-0.11887 0 0.0396-0.0793 0.11887h0.0793q0.0396-0.0396 0.0396-0.11887zm0-0.63397q0.31699-0.0396 0.35661-0.0793 0.0793-0.0396 0.1585-0.27736l0.0396-0.0396-0.0396 0.0396q-0.35661 0-0.51511 0.35661zm0.0793 3.0114q-0.0396 0.0396-0.0396 0.11887h0.11887zm4.2001-16.285q-0.27736 0.43586-0.59435 0.83209-0.27736 0.35662-0.0793 0.79247 0 0.0792-0.0396 0.1585-0.0396 0.0396 0 0.11887l-0.11887 0.95096q-0.0793 0.63397 0.0396 1.1887 0.11887 0.51511-0.0396 1.1491-0.15849 0.31699 0.15849 0.31699 0 0.0396-0.0396 0.0792 0 0 0 0.0396 0-0.0396 0-0.0396 0.0396-0.0396 0.0396-0.0792 0.0793-0.55473 0.11887-1.1095 0.0793-0.59435 0.1585-1.1491 0.0792-0.39623 0.11887-0.75284 0.0792-0.39624 0.0792-0.75285 0-0.27736 0.11888-0.71322 0.0792-0.23774 0.15849-0.5151 0.11887-0.27737-0.0793-0.51511zm0.1585-1.0302h0.0396l-0.0396-0.0396zm-4.1208 9.5096q0.0793-0.23774 0.19812-0.47548 0.15849-0.27736 0.23774-0.5151 0.0793-0.43586 0.11887-0.87172 0.0396-0.47548 0.0793-1.0302-0.19812 0.31699-0.19812 0.35662l-1.5453 3.0906q-0.19812 0.39624-0.35662 0.79247-0.15849 0.39623-0.31698 0.83209-0.11887 0.23774-0.19812 0.51511-0.0793 0.23774-0.15849 0.47548-0.19812 0.47548-0.47548 0.95096-0.23775 0.47548-0.47549 0.95096-0.0792 0.19812-0.19811 0.39623-0.11887 0.1585-0.1585 0.35662-0.15849 0.79246-0.55472 1.5453-0.39624 0.71322-0.71323 1.4661l0.0396 0.0396v-0.0396q0.19812-0.0792 0.23774-0.19811 0.0793-0.1585 0.15849-0.27737 0.55473-1.1094 1.0698-2.2189 0.55473-1.1094 1.1095-2.2189 0.23774-0.5151 0.43586-1.0302 0.23774-0.5151 0.6736-0.99058 0.11887-0.1585 0.19811-0.27737 0.11887-0.15849 0.19812-0.31698 0.19812-0.31699 0.31699-0.63398 0.15849-0.35661 0.35661-0.6736zm-7.37 9.7077h-0.11887zm0.0792-0.6736q0-0.0793 0.0396-0.11887-0.0396 0.0396-0.0396 0.11887zm11.649 11.451q-0.0793 0.31699-0.0793 0.6736 0.0396 0.31698 0 0.67359l-0.35661 0.27737q-0.19812 0.0792-0.31699 0.15849-0.0793 0.0396-0.19812 0.11887-0.0792 0.0793-0.11887 0.1585-0.0396 0.0396-0.11887 0.0396-0.55472 0.11887-1.0698 0.35661-0.5151 0.23774-1.0698 0.15849-0.27736-0.0396-0.63398 0.23774-0.19811 0.19812-0.43585 0.31699t-0.47548 0.27736q-0.0396 0.0396-0.0792 0.0396t-0.0793 0.0396q-0.0396 0-0.23774 0-0.15849-0.0396-0.35661-0.0396-0.19812-0.0396-0.39623-0.0793-0.1585-0.0396-0.1585-0.0792-0.0792-0.19811-0.15849-0.39623-0.0793-0.23774 0.11887-0.55473 0.19812-0.27736 0.11887-0.71322 0-0.43586 0.0793-0.87171 0.0792-0.43586 0.15849-0.87172 0.0793-0.23774 0.0396-0.43586 0-0.23774 0.0793-0.47548 0.15849-0.55473 0.0793-1.0302-0.0396-0.5151 0.23774-1.0698 0.0793-0.19812 0-0.39623-0.0396-0.19812-0.0396-0.39624-0.0396-0.39623-0.0793-0.75284 0-0.39624 0-0.79247 0.0396-0.11887 0.15849-0.23774 0.1585-0.15849 0.0793-0.31699 0-0.0792 0.0396-0.11887h-0.0396q-0.0396 0.0396-0.0396 0.11887-0.0793-0.19811-0.1585-0.35661-0.0793-0.15849 0.11887-0.43586 0.0793-0.0792 0.0396-0.15849 0-0.0793 0-0.19812-0.11887 0.0396-0.19812 0.0396-0.0793 0-0.1585 0.0396-0.83209 0.39623-1.5849 0.5151-0.75285 0.0792-1.5453 0.1585-0.31699 0.0396-0.43586 0.11887-0.11887 0.0793-0.31699 0.43586l0.31699-0.1585q-0.0793 0.23774-0.1585 0.43586-0.0396 0.19812-0.15849 0.39623-0.11887 0.1585-0.31699 0.27737-0.15849 0.11887-0.35661 0.27736-0.0396 0.0396-0.0792 0.0793-0.0396 0-0.0793 0.0793-0.1585 0.35661-0.31699 0.75284-0.11887 0.35661-0.31699 0.83209 0.19812-0.15849 0.27737-0.23774 0.0792-0.0793 0.23774-0.19812-0.0396 0.1585-0.0396 0.27737 0.0396 0.0793-0.0396 0.15849-0.19812 0.27737-0.31699 0.55473-0.0792 0.27736-0.39623 0.5151-0.27736 0.27737-0.15849 0.51511 0.0792 0.15849-0.0396 0.35661-0.43585 0.83209-0.59435 1.6642-0.0793 0.23774-0.19812 0.31699-0.0792 0.0396-0.39623-0.0396-0.19812 0.43585-0.63397 0.47548-0.59436 0.0792-0.99059 0.11887-0.35661 0-1.0302-0.19812-0.0792 0-0.23774 0.0793-0.0793 0.0792-0.31699 0.23774-0.47548 0.43586-1.0302 0.43586-0.51511 0-0.75285-0.43586-0.43586-0.95096 0.31699-2.1397 0.19811-0.31698 0.31699-0.63397 0.11887-0.35661 0.31698-0.6736 0.0396-0.0793 0-0.15849 0-0.11887 0.0793-0.19812 0.19812-0.19812 0.31699-0.35661 0.11887-0.19812 0.11887-0.47548 0.0396-0.19812 0.11887-0.43586 0.11887-0.23774 0.23774-0.47548 0.19811-0.31699 0.27736-0.63397 0.11887-0.35661 0.43586-0.6736l0.23774 0.11887q0.27736-0.35661 0-0.43586-0.15849-0.0396-0.0793-0.27736l0.47548-1.1887 0.11887-0.11887q0.31699-0.31698 0.39624-0.47548 0.0792-0.15849 0.15849-0.47548 0.0396-0.0792 0.0396-0.11887 0-0.0396 0.0396-0.11887 0.31699-0.59435 0.59435-1.1887t0.71322-1.1491q0.0793-0.0792 0.15849-0.31699 0.0396-0.19811 0.19812-0.59435 0.19812-0.55473 0.71322-0.6736-0.0396-0.35661 0-0.67359 0.0396-0.31699 0.47548-0.6736 0.19812-0.1585 0.23774-0.39624 0.0793-0.27736 0.1585-0.47548 0.11887-0.27736 0.23774-0.5151 0.11887-0.27737 0.27736-0.55473 0.0793-0.0793 0.11887-0.23774 0.0396-0.15849 0.27737-0.11887 0-0.0793-0.0396-0.19812 0-0.11887 0.0396-0.19811 0.15849-0.31699 0.27736-0.55473 0.11887-0.27737 0.27736-0.55473 0.31699 0.0793 0.47549-0.15849 0.19811-0.23774 0.47548-0.31699-0.1585-0.19812-0.23774-0.19812-0.0396-0.0396-0.35661 0.0396 0.15849-0.27737 0.27736-0.51511t0.23774-0.47548q0.0793-0.19812 0.27736-0.23774 0.23774-0.0793 0.35661-0.23774 0.0792-0.15849 0.0396-0.31699 0-0.19812 0.0792-0.27736 0.31699-0.31699 0.35662-0.6736 0.0396-0.35661 0.23774-0.6736 0.15849-0.27736 0.23774-0.55473 0.11887-0.27736 0.27736-0.59435 0.15849-0.31698 0.31699-0.59435 0.19811-0.27736 0.39623-0.55473 0.1585-0.0792 0.27737-0.0792 0.11887-0.0396 0.19811-0.11887 0.27737-0.27737 0.47548-0.6736 0.0793-0.19812 0.0793-0.35661 0.0396-0.1585 0.0793-0.35661 0.11887-0.59435 0.6736-0.87172v-0.0396q0-0.0793 0-0.0793 0-0.0396-0.0396-0.0396 0-0.0396 0-0.0793 0.55473-0.5151 0.6736-1.0302 0.11887-0.55472 0.19812-1.1094 0.0792-0.43586 0.27736-0.79247 0.19812-0.35661 0.39623-0.75285 0.0793-0.15849 0.23775-0.19811 0.15849-0.0396 0.27736 0.0396 0.11887 0.0793 0.19812 0.19812 0.11887 0.11887 0.23774 0.23774 0.47548-0.51511 0.67359-1.1887 0.0792-0.1585 0.0792-0.27737 0.0396-0.15849 0.11887-0.31699 0.11887-0.43585 0.43586-0.63397 0.35661-0.23774 0.71322-0.39623 0.27736-0.1585 0.35661 0.23774l0.11887 0.71322q0.31699-0.0793 0.63398-0.0793 0.31698-0.0396 0.63397-0.11887 0.43586-0.0793 0.55473 0.0396 0.15849 0.11887 0.0793 0.51511-0.0793 0.23774-0.11887 0.47548 0 0.23774-0.0793 0.47548-0.0396 0.31699-0.0793 0.59435-0.0396 0.27737-0.0793 0.59435-0.0792 0.71322-0.15849 1.4264-0.0793 0.71322-0.15849 1.4264-0.0793 0.35661 0 0.6736 0.0792 0.63397-0.0396 1.3076-0.0792 0.6736-0.27736 1.3472-0.0793 0.19811-0.11887 0.43585 0 0.23774 0 0.43586 0.0792 0.55473 0 1.1491-0.0793 0.55473-0.15849 1.1094-0.0793 0.43586-0.1585 0.91134-0.0396 0.43586-0.11887 0.87172l-0.23774 2.6151q-0.0792 0.55473-0.11887 1.1095 0 0.55473-0.0793 1.1094-0.0396 0.27737-0.11887 0.55473-0.0396 0.27737-0.0396 0.55473-0.0396 0.19812-0.0396 0.35661t0 0.35661q-0.0396 0.19812-0.0396 0.43586 0 0.19812 0 0.39623 0 0.0793-0.0396 0.19812 0 0.11887 0.0396 0.19812 0.19812 0.43586 0.0792 0.95096-0.0792 0.5151-0.0792 0.99058-0.0396 0.39624-0.0792 0.79247 0 0.39624 0.0792 0.79247 0 0.11887-0.0396 0.1585-0.15849 1.0302-0.31699 2.1-0.11887 1.0302-0.31698 2.0604-0.0793 0.59435-0.1585 1.1887t-0.15849 1.1887z"/>
  <path d="m133.88 148.27h0.11887l0.0396-0.0396h-0.0396zm-3.4472 4.3982q0.0396-0.0396 0.0396-0.11887h-0.0396q0 0.0792-0.0396 0.11887h0.11887zm3.4076-8.1228q0-0.0396 0-0.0396 0.0396-0.0396 0.0396-0.0792h-0.0396q0 0.0396-0.0396 0.0792 0 0 0 0.0396zm-4.8737 10.183q-0.0793 0.23774-0.0793 0.35661h0.11887q0-0.11887 0.0793-0.35661zm5.1114-7.0133q0.27736-0.43586 0.47548-0.87172 0.23774-0.47548 0.31699-0.95096-0.31699 0.43586-0.51511 0.91134-0.15849 0.43586-0.31699 0.91134zm2.2982-4.3982q-0.99059 0.95096-1.3076 2.2585 0.35661-0.55472 0.6736-1.1094 0.35661-0.59435 0.6736-1.1491zm2.0604-3.1699q0 0.0396-0.0396 0.0792 0 0 0 0.0396 0-0.0396 0-0.0396 0.0396-0.0396 0.0396-0.0792h0.11887zm-7.6869 9.153q0.27736-0.19812 0.27736-0.55473 0.19812-0.27737 0.39624-0.51511 0.19812-0.27736 0.43586-0.59435v0.35661q0.0792-0.0792 0.15849-0.11887 0.19812-0.31698 0.35661-0.59435 0.19812-0.31699 0.39623-0.6736-0.19811-0.0396-0.31698-0.0396-0.11887-0.0396-0.27737-0.0793 0.1585-0.27736 0.23774-0.55472 0.0793-0.27737 0.39624-0.55473 0.15849 0.15849 0.19812 0.23774 0.23774-0.19812 0.27736-0.27737 0.0396-0.0792 0.0793-0.35661-0.1585 0.0793-0.27737 0.11887 0-0.0396-0.0396-0.0396 0-0.0396 0-0.0793 0.0793-0.19811 0.15849-0.39623 0.0793-0.19812 0.27737-0.39623 0.0792-0.0793 0.11887-0.11887 0.0792-0.0792 0.15849-0.0792 0.43586 0.0396 0.55473-0.23774 0.15849-0.27737 0.35661-0.47548-0.0396-0.1585-0.0793-0.27737 0-0.15849-0.0792-0.35661 0.19811-0.19811 0.39623-0.35661 0.23774-0.19812 0.43586-0.39623 0.11887-0.11887 0.15849-0.0396 0.0396 0.0396 0.0793 0.11887l-0.0396-0.0396v0.0396l0.8321-0.59435q0.5151-0.39623 1.0302-0.6736 0.55473-0.31698 1.1095-0.63397 0.27736-0.15849 0.55473-0.23774 0.27736-0.11887 0.59435-0.11887-0.0793 0.0793-0.19812 0.15849-0.0793 0.0396-0.23774 0.1585 0.63398-0.1585 1.2283-0.27737-0.1585-0.23774-0.39624-0.11887t-0.43585 0.0396q0.35661-0.27737 0.63397-0.27737 0.31699 0 0.63397 0 0.23775 0 0.43586 0 0.23774-0.0396 0.51511-0.15849 0.35661-0.15849 0.71322-0.23774 0.39623-0.0793 0.75284-0.19812h0.11887q0.59435 0.11887 1.2283 0.15849 0.63397 0 1.0698 0.43586 0.11887 0.11887 0.23774 0.23774 0.1585 0.0793 0.35661 0.19812 0-0.15849 0.0793-0.39623 0.75284 0.19811 1.1491 0.71322 0.43586 0.47548 0.71322 1.1094 0.11887 0.27737 0.11887 0.63398 0 0.31698 0.0396 0.63397-0.0396 0.6736-0.0396 1.3076 0 0.63398 0 1.3076 0 0.11887-0.0396 0.23774 0 0.11887 0 0.23774-0.0793 0.39623-0.35661 0.55473-0.35662 0.19811-0.47549 0.5151-0.19811 0.6736-0.47548 1.3076-0.27736 0.63398-0.59435 1.3076-0.0792 0.15849-0.15849 0.31698-0.0793 0.11887-0.31699 0.11887-0.0396 0-0.0793 0.0793-0.0396 0.0793-0.0792 0.15849-0.0793 0.1585-0.1585 0.31699-0.0396 0.11887-0.11887 0.23774-0.5151 0.1585-0.95096 0.11887-0.39623-0.0793-0.91134 0.35661-0.0792-0.0792-0.11887-0.15849 0-0.11887-0.0792-0.23774l-0.95097 0.71322q-0.39623 0.31699-0.63397 0.35661-0.23774 0.0396-0.55473-0.15849-0.15849-0.0793-0.35661-0.11887-0.15849-0.0396-0.31699-0.11887-0.63397-0.1585-0.35661-0.91134 0.1585-0.39624 0.43586-0.79247 0.19812-0.31699 0.31699-0.6736t0.31699-0.6736q0.31698-0.63397 0.43585-1.2283t0.27737-1.1887q0-0.1585 0-0.27737 0.0396-0.15849 0.0396-0.31699 0.0396-0.19811 0-0.39623t0.15849-0.39623q0.0396-0.0396 0.0396-0.1585 0-0.31699-0.0396-0.63397 0-0.35661 0-0.6736 0-0.19812-0.0396-0.31699-0.0396-0.15849-0.23774-0.23774 0.0793-0.31699-0.11887-0.47548-0.15849-0.19812-0.23774-0.39623-0.15849-0.23774-0.23774-0.23774-0.0793 0-0.39624 0.19811-0.79246 0.47548-1.2679 1.1491-0.47549 0.63398-0.79247 1.3868-0.0793 0.19812-0.19812 0.43586-0.11887 0.19812-0.23774 0.39623-0.0793 0.19812-0.19812 0.43586-0.11887 0.23774-0.19811 0.47548-0.0396 0.0793-0.0396 0.11887 0.0396 0.0396 0 0.11887-0.31699 0.51511-0.47548 1.0302-0.15849 0.51511-0.31699 1.0698-0.0792 0.1585-0.15849 0.31699-0.0793 0.11887-0.15849 0.27736-0.19812 0.39624-0.23774 0.75285-0.0396 0.31699 0.19811 0.59435 0.0793 0.0793 0.1585 0.11887 0.0792 0.0396 0.11887 0.19812h-0.51511q-0.0396 0.0792-0.0792 0.11887-0.0396 0-0.0396 0.0396l-1.1887 3.9227q-0.75284 2.2982-1.0698 4.5963-0.1585 0.99058-0.27737 1.9812-0.0792 0.95096-0.19811 1.9415-0.0793 0.6736-0.11887 1.3076 0 0.59435-0.0396 1.2283 0 0.19812 0.0396 0.39624 0.0792 0.15849 0.11887 0.35661 0.0792 0.55472 0 1.1491 0.0792 0.59435 0.35661 0.99058 0.59435-0.63397 1.1094-1.2283 0.55473-0.59435 0.91134-1.3076 0.51511-0.95096 0.79247-1.9019 0.31699-0.95096 0.59435-1.9019 0.23774-0.67359 0.39624-1.3472 0.19811-0.71322 0.55472-1.3868 0.0793-0.0793 0.11887-0.23774 0.0793-0.15849-0.11887-0.23774-0.0396 0-0.0396-0.0396l-0.0396-0.0396q0.43585-0.23774 0.35661-0.47548-0.0793-0.27736-0.0396-0.47548 0.11887-0.59435 0.59435-1.0698 0.27737-0.35661 0.71323-0.35661 0.27736 0 0.35661-0.0793 0.47548-0.27736 0.95096-0.19812 0.47548 0.0793 0.91134-0.35661 0.0792 0.0793 0.19811 0.11887 0.11887 0.0396 0.19812 0.11887 0.1585-0.0792 0.27737-0.11887 0.11887-0.0396 0.31698-0.0792 0.71322-0.1585 0.47548 0.43585-0.0792 0.31699-0.23774 0.6736-0.11887 0.31699-0.23774 0.63398-0.19811 0.63397-0.39623 1.2679-0.19812 0.59436-0.31699 1.2283-0.19812 1.0698-0.5151 2.1397-0.31699 1.0698-0.71322 2.1397-0.0793 0.23774-0.1585 0.47548t-0.15849 0.47548q-0.0793 0.23774-0.1585 0.31699-0.63397 1.0302-1.1491 2.1-0.51511 1.0302-1.3472 1.9812-0.15849 0.23774-0.27736 0.31699-0.75285 0.55473-1.5453 1.0698-0.75284 0.47548-1.6642 0.5151-0.59435 0-1.2283 0.35661-0.47548 0.27737-0.99058 0.35662-0.47548 0.0396-1.0302 0.15849-0.0396 0-0.19812-0.0793l-1.1887-0.35661q-0.0793-0.0396-0.11887-0.0793 0-0.0396-0.0792-0.0396-0.5151 0-0.87171-0.23774-0.31699-0.23774-0.63398-0.47548-0.95096-0.6736-1.1491-1.8623-0.0792-0.55473-0.15849-1.1491-0.0396-0.59435-0.11887-1.1491-0.0793-0.31699-0.15849-0.63397-0.0793-0.35661-0.0396-0.71322 0.0396-0.59436 0.0396-1.1491 0-0.59435 0.11887-1.1887 0-0.15849 0-0.15849-0.19812-0.43586-0.0396-0.91134 0.1585-0.5151 0.11887-0.99058 0-0.43586 0.1585-0.95097 0.15849-0.5151 0.23774-1.0302 0.0396-0.19812 0.0396-0.35661 0-0.1585 0-0.35662 0-0.27736 0.0396-0.55472 0.0793-0.27737 0.11887-0.55473 0.0396-0.39624 0.19812-0.75285 0.19812-0.39623 0.27737-0.79246 0.0792-0.35662 0.19811-0.71323 0.11887-0.39623 0.27737-0.79246 0.0396-0.11887 0.15849-0.23774 0.15849-0.11887 0.23774-0.23775 0 0.0396-0.0396 0.0792 0 0 0 0.0396 0-0.0396 0-0.0396 0.0396-0.0396 0.0396-0.0792 0.0793-0.19811 0.15849-0.39623 0.0793-0.19812 0.27737-0.39623 0.19812-0.1585 0.19812-0.35661 0.0396-0.23774-0.11887-0.39624-0.0793-0.0792-0.11887-0.15849 0-0.0793-0.0793-0.1585-0.23774 0.11887-0.47548 0.1585-0.19812 0-0.31699-0.27737h0.39623q0.31699 0.0793 0.43586 0 0.11887-0.0792 0.23774-0.39623 0.0793-0.27736 0.1585-0.5151 0.11887-0.27737 0.23774-0.55473 0 0 0.39623-0.19812 0.0396-0.0793 0.0793-0.27736 0.0396-0.19812 0.11887-0.39624 0.11887-0.35661 0.39623-0.5151z"/>
  <path d="m154.88 167.56h-0.0396zm1.1491-7.9643h-0.0396v0.0396zm-9.3511 9.1134q-0.0396 0-0.0396-0.0396l0.0396-0.0396zm8.519-2.4963q0.0396-0.0396 0.0396-0.11887h-0.0396v0.0396zm1.2283-5.5473-0.0396 0.0396h0.0396zm0.83209-0.0396v0.0396l0.0396-0.0396zm0.91134-3.0114q-0.0396 0.0396-0.0396 0.11887zm-1.1491-0.63397h-0.0396v-0.0396 0.0396zm-5.3888-2.0208 0.0396-0.0396-0.0396 0.0396h0.0396zm8.6775-0.59435 0.0396-0.0396h-0.0396q-0.0396 0.0396-0.0396 0.11887zm-13.67-0.19811h-0.0396v-0.0396 0.0396zm4.2793-7.1322h0.0396l0.0396-0.0396zm5.468 15.73h-0.11887q0.0396-0.0396 0.0396-0.11887h0.0396q0 0.0792-0.0396 0.11887zm-1.0302-1.5849h-0.11887zm-9.2323-6.6964q0 0.0793-0.0396 0.11887l0.0396 0.0396q0.0396 0 0.0396 0 0.0396-0.0396 0.0792-0.0396 0-0.0396-0.0792-0.11887zm0.83209-2.417q0.0396-0.0396 0.0396-0.11887h-0.11887v0.0396q0 0.0396 0.0792 0.0396zm2.2982-6.3794h-0.11887zm4.1605 23.061q0-0.0793-0.0793-0.0793l-0.0792 0.0396q-0.0396 0.0396 0.0396 0.11887 0.0792-0.0793 0.19812-0.11887zm-5.3095-19.772q-0.0792-0.0793-0.0792-0.11887-0.1585 0.0792-0.1585 0.11887-0.0396 0.0396 0.0396 0.11887 0.0792-0.0793 0.15849-0.11887zm6.2209-9.1134q0.0793-0.15849 0.15849-0.47548-0.0792 0.31699-0.15849 0.47548zm1.7434 23.893q-0.0793 0.31699-0.1585 0.47548h0.11888q0.0792-0.15849 0.15849-0.47548zm0.31699-0.87171h0.11887q-0.0793-0.0793 0-0.19812 0.11887-0.15849-0.0793-0.27736-0.0396 0.19811-0.0793 0.31698 0 0.11887-0.0396 0.23774zm-2.4963 5.7058q0.35661 0 0.39624-0.23774 0-0.0396-0.0793-0.0396-0.0396-0.0396-0.0793-0.0792zm1.5849-29.242q0.0396-0.0793 0.0792-0.11887 0.0396-0.0396 0.0793-0.11887h-0.11887q0 0.0793-0.0396 0.11887 0 0.0396 0 0.11887-0.0396 0.0396-0.0396 0.0793 0 0 0.0396-0.0793-0.0396 0.0793-0.0396 0.0793 0-0.0396 0.0396-0.0793zm-0.71322 27.618q0 0.0396-0.0396 0.0792 0 0 0 0.0396h0.11887q-0.0396-0.0396-0.0396-0.0396 0-0.0396-0.0396-0.0792l0.11887-0.35661h-0.11887q0 0.0792 0 0.11887 0.0396 0.0396 0.0396 0.11887zm-4.9529-22.902q-0.0396 0.0792-0.0396 0.11887 0 0.0396-0.0396 0.11887l0.0396 0.0396v-0.0396q0-0.0396 0-0.0396 0.0396-0.0396 0.0396-0.0792zm-0.51511 1.0302h0.0396q0.0396-0.0396 0.0396-0.11887zm4.4774 22.149v-0.0396 0.0396h-0.0396v0.0396zm2.6944-29.48q0 0.0396 0.0396 0.0793 0.0396 0 0.0396 0.0396-0.15849 0.43586-0.19812 0.83209-0.0396 0.39624-0.35661 0.8321-0.15849 0.15849-0.0793 0.23774 0.0793 0.15849-0.15849 0.47548-0.43586 0.55473-0.31699 1.0698 0.0396 0.19812-0.11887 0.59435-0.15849 0.43586-0.31698 0.87172-0.1585 0.43585-0.35661 0.87171-0.31699 0.63398-0.51511 1.268-0.19812 0.59435-0.39623 1.2283-0.0793 0.23774-0.0793 0.31698 0 0.51511-0.19812 1.0302-0.19811 0.51511-0.39623 1.0698-0.0793 0.23774-0.11887 0.47549 0 0.23774-0.0793 0.47548 0 0.31698-0.0792 0.67359-0.0396 0.31699-0.31699 0.63398-0.0793 0.11887-0.0793 0.39623-0.0396 0.1585 0 0.31699 0.0396 0.11887-0.0396 0.27736-0.31699 0.79247-0.47548 1.6246-0.1585 0.79247-0.47548 1.5849-0.0793 0.19812-0.1585 0.35661-0.0792 0.11887-0.15849 0.27737-0.23774 0.31698-0.35661 0.63397t0 0.63397q0.0396 0.0793 0 0.23774-0.0396 0.11888-0.0793 0.27737 0.15849 0 0.27736 0.0396 0.1585 0 0.31699-0.0396 0.59435-0.0793 1.1887-0.19812 0.59436-0.11887 1.1887-0.19812 0.35661-0.0792 0.43585-0.11887 0.0793-0.0792 0.19812-0.43585 0.0793-0.31699 0.23774-0.59435 0.19812-0.31699 0.19812-0.63398 0-0.0793 0.11887-0.15849 0.11887-0.11887 0.19812-0.19812 0.0792-0.19812 0.15849-0.35661 0.11887-0.15849-0.0396-0.31699 0-0.0396 0-0.0792 0.0396-0.0793 0.0396-0.1585l0.83209-1.5453q0.23774-0.43586 0.0396-0.71322-0.11888-0.1585-0.0793-0.31699 0.0793-0.15849 0.23774-0.23774 0.43586-0.19812 0.5151-0.47548 0.11887-0.27737 0.19812-0.59435 0.0793-0.35661 0.11887-0.71322 0.0793-0.35661 0.39623-0.71323 0.0396-0.0792 0.0396-0.35661 0-0.19811 0-0.39623 0-0.23774 0.0792-0.43586 0-0.15849 0.0396-0.27736 0.0793-0.11887 0.31699-0.1585 0.11887-0.0396 0.23774-0.27736 0.11887-0.23774 0.0396-0.43586-0.0793-0.15849 0.0396-0.35661 0.43586-0.59435 0.59435-1.2283 0.0396-0.11887 0.11887-0.23774 0.11887-0.1585 0.19812-0.27737 0.19812-0.19811 0.31699-0.43586 0.11887-0.23774 0.0793-0.43585 0-0.19812 0.0792-0.35661 0.0793-0.19812 0.1585-0.39624 0.0396-0.23774 0.27736-0.35661 0.23774-0.11887 0.35661-0.43586 0.11887-0.35661 0.0396-0.59435-0.11887-0.5151 0.35661-0.87171 0.23775-0.1585 0.23775-0.35661-0.0793-0.27737 0.0396-0.55473 0.11887-0.27736 0.11887-0.55473 0-0.23774 0.15849-0.35661 0.59435-0.43586 1.1491-0.79247 0.35661-0.23774 0.63398-0.11887 0.27736 0.0793 0.55472 0.1585 0.35661 0.11887 0.55473-0.23774 0.0793-0.0793 0.1585-0.1585 0.0792-0.11887 0.15849-0.11887 0.31699-0.0396 0.6736-0.19812 0.35661-0.15849 0.59435 0.1585 0.0793 0.0792 0.27736 0 0.23774-0.0793 0.43586-0.11887 0.0793 0.15849 0.19812 0.27736 0.39623 0.19812 0.43585 0.47548 0.0793 0.27737-0.15849 0.75285-0.27736 0.55473-0.55473 1.1491-0.23774 0.55472-0.39623 1.1094-0.11887 0.39624-0.31699 0.75285-0.15849 0.35661-0.35661 0.71322-0.0793 0.19812-0.19812 0.43586-0.11887 0.19811-0.0396 0.39623 0 0.0793-0.0396 0.15849-0.0396 0.0396-0.0793 0.11887-0.23774 0.31699-0.39623 0.63398-0.1585 0.27736-0.1585 0.59435-0.0792-0.0793-0.0792-0.19812-0.0396 0.0793-0.0793 0.11887-0.0396 0-0.0396 0.0396-0.11888 0.27736-0.23775 0.55472-0.11887 0.23774-0.19811 0.51511-0.11887 0.5151-0.39624 0.99058-0.27736 0.47548-0.47548 0.95097-0.19811 0.47548-0.39623 0.95096-0.1585 0.47548-0.35661 0.95096-0.19812 0.55473-0.43586 1.0698-0.19812 0.51511-0.35661 1.0698-0.15849 0.55473-0.39623 1.0698-0.23775 0.5151-0.43586 1.0698-0.0396 0.0792-0.0396 0.15849 0 0.0396-0.0396 0.11887h-0.11887 0.11887q-0.0396 0.27737-0.19812 0.51511-0.11887 0.23774-0.31698 0.47548-0.11887 0.19811-0.23774 0.35661-0.0793 0.15849 0.0792 0.31699-0.39623 0.35661-0.27736 0.83209-0.19812 0.31698-0.39624 0.63397-0.15849 0.27737-0.15849 0.59435 0 0.0793-0.0396 0.19812-0.0396 0.0793-0.0793 0.15849-0.11887 0.23774-0.19812 0.47548-0.0792 0.23775-0.19811 0.47549-0.0793 0.19811-0.23774 0.43585-0.1585 0.19812-0.27737 0.39624-0.0792 0.19811-0.19811 0.39623-0.11887 0.15849-0.11887 0.31699 0.0396 0.47548-0.39624 0.91134-0.19812 0.19811-0.0793 0.31698-0.11887 0.19812-0.27736 0.43586-0.11887 0.19812-0.0793 0.43586-0.47548 0.55473-0.55472 1.1491-0.0396 0.55473-0.31699 1.1094 0 0 0 0.0793v0.0396q0.0793 0.0396 0.11887 0.0396 0.0792 0 0.11887 0.0396 0 0.11887-0.0793 0.27736-0.39623 0.59436-0.39623 1.1095h-0.35661q-0.31699 0.91134-0.63398 1.8227-0.27736 0.91134-0.55473 1.8227-0.15849 0.0396-0.31698 0.0396-0.11887 0-0.23774 0.0792-0.39624 0.31699-0.83209 0.39624-0.39624 0.0396-0.8321 0.31699-0.0792-0.1585-0.15849-0.27737-0.43586 0.23774-0.83209 0.47548-0.39624 0.23774-0.79247 0.43586-0.19812-0.0793-0.35661-0.15849-0.15849-0.0793-0.27736-0.1585-0.35662-0.23774-0.23775-0.71322 0.11888-0.39623 0.23775-0.75284 0.15849-0.39624 0.27736-0.79247 0.0793-0.27736 0.19812-0.55473 0.15849-0.27736 0.11887-0.55473 0.19811-0.0792 0.27736-0.23774 0.0793-0.15849 0.15849-0.35661l0.59436-1.9019q0.11887-0.31699 0.19811-0.59435 0.11887-0.27737 0.19812-0.59435l0.23774-0.71323q0.0793-0.19811 0.11887-0.39623 0.0792-0.23774 0.23774-0.47548 0.11887-0.19812 0.15849-0.39623 0.0396-0.23775 0.0793-0.43586 0.0793-0.35661 0.27737-0.71322 0.19811-0.35661 0.15849-0.71323 0 0 0.0793-0.19811 0.31698-0.31699 0.35661-0.63398 0.0396-0.35661 0.0396-0.71322-0.55473 0.1585-1.1491 0.31699-0.59435 0.11887-1.1491 0.23774-0.27736 0.0793-0.5151 0.0793t-0.47548 0q-0.27737 0-0.39624 0.0792-0.0792 0.0396-0.19811 0.35661-0.0793 0.19812-0.11888 0.35661 0 0.1585-0.0792 0.35662-0.11887 0.31698-0.1585 0.63397-0.0396 0.27736-0.31698 0.59435-0.11887 0.11887-0.11887 0.23774-0.0793 0.63398-0.35661 1.268-0.27737 0.59435-0.51511 1.2283-0.19812 0.55472-0.35661 1.0698-0.11887 0.5151-0.31699 1.0698-0.0792 0.19812-0.19811 0.43586-0.11887 0.19812-0.19812 0.39623-0.19812 0.47548-0.39623 0.95096-0.1585 0.47549-0.35662 0.95097-0.0792 0.23774-0.0792 0.39623-0.0396 0.23774-0.11887 0.47548-0.0396 0.23774-0.23774 0.47548l-1.3076 0.35661q-0.43585 0.11887-0.87171 0.1585-0.43586 0.0396-0.91134 0.0792-0.31699 0.0396-0.63397 0.19812-0.31699 0.15849-0.6736 0.27736-0.1585 0.0792-0.23774 0.1585-0.35661-0.0793-0.51511-0.31699-0.11887-0.23774-0.27736-0.43586-0.0793-0.15849 0-0.35661 0.15849-0.55472 0.35661-1.1094 0.19812-0.59435 0.39623-1.1491 0.27737-0.71322 0.51511-1.4264 0.27736-0.71323 0.59435-1.4264 0.0793-0.15849 0.11887-0.19811-0.0396-0.55473 0.23774-1.1095 0.27736-0.59435 0.47548-1.1491 0.19812-0.59435 0.35661-1.1887 0.19812-0.59435 0.39624-1.1887 0.0396-0.1585 0.19811-0.47548 0.0396-0.0793 0.0793-0.1585 0.0396-0.11887 0.0396-0.19812 0.0396-0.67359 0.27737-1.3076 0.27736-0.63397 0.43586-1.3076 0.0396-0.0793 0.0792-0.15849 0.0396-0.11887 0.0793-0.19812 0.0793-0.19812 0.19812-0.19812 0.11887 0 0.23774-0.0793l-0.11887-0.35661q-0.0396-0.19811-0.0396-0.35661 0.0396-0.15849 0.39624-0.31698 0.11887-0.11887 0.11887-0.23774-0.0793-0.19812 0.0396-0.35662 0.15849-0.15849 0.23774-0.35661-0.15849 0.0396-0.35661 0.0396-0.0793-0.31699 0.11887-0.59435 0.19812-0.27737 0.51511-0.55473-0.0396-0.0793-0.0396-0.19812 0-0.11887-0.0396-0.19812-0.0793-0.19811 0.0396-0.5151 0.1585-0.31699 0.31699-0.63397 0.15849-0.35662 0.11887-0.6736-0.0793-0.1585 0.0792-0.23774 0.27736-0.23774 0.27736-0.47548 0.0396-0.27737 0.11887-0.55473 0.0793-0.23774 0.15849-0.47548 0.0793-0.23774 0.31699-0.43586 0 0.0396 0.0793 0.11887 0.0792-0.0793 0.15849-0.11887l-0.0396 0.0396h-0.23774q0.15849-0.39623 0.19811-0.59435 0.0793-0.23774 0.1585-0.47548 0.0793-0.23774 0.19812-0.55473 0.0792-0.0792 0.23774-0.11887 0.15849-0.0792 0.23774-0.31698 0.0792-0.19812 0.11887-0.31699 0.0396-0.1585-0.0793-0.31699-0.11887-0.15849 0.0396-0.55473 0.0793-0.31698 0.1585-0.63397 0.11887-0.35661 0.27736-0.6736 0.11887-0.27736 0.23774-0.55473 0.11887-0.27736 0.31699-0.55473 0.27736-0.39623 0.19812-0.59435-0.0396-0.0396 0-0.11887 0.0792-0.11887 0.15849-0.19811 0.11887 0.0792 0.19812 0.23774 0.0792-0.0793 0.11887-0.0793 0.0396-0.0396 0.0792-0.11887 0.1585-0.43586 0.27737-0.83209 0.11887-0.43586 0.27736-0.91134-0.19812 0.27736-0.27736 0.55473-0.0396 0.23774-0.35661 0.43585 0-0.0792-0.0396-0.11887 0-0.0396 0.0396-0.11887 0.19811-0.5151 0.31698-1.0302 0.1585-0.51511 0.71323-0.99059 0.0792-0.0792 0.0396-0.15849-0.0793-0.19812 0-0.43586t0.15849-0.43586q0.0793-0.19812 0.1585-0.39623 0.0792-0.19812 0.47548-0.11887 0.0396-0.43586 0-0.75285 0-0.35661 0.0792-0.71322 0.0396-0.27736 0.11887-0.55473 0.0793-0.27736 0.35661-0.59435 0.0793 0 0.1585 0.0396 0.0793 0 0.15849 0 0.1585 0 0.35661-0.0793 0.19812-0.0793 0.27737 0.0793 0.11887 0.19811 0.19811 0.43585 0.0793 0.19812 0 0.51511-0.19811 0.47548-0.31698 0.95096t-0.31699 0.95096q-0.27736 0.79247-0.59435 1.5453-0.31699 0.75285-0.63398 1.5453-0.19811 0.43585-0.39623 0.83209-0.15849 0.39623-0.27736 0.83209-0.0793 0.31699-0.0396 0.59435 0.0793 0.23774 0.0793 0.51511l-0.71322 2.1397h0.11887l0.35661-0.71322q0.15849-0.39623 0.31699-0.75285 0.15849-0.39623 0.35661-0.79246 0.19811-0.31699 0.35661-0.63398 0.19811-0.35661 0.35661-0.6736 0.19811-0.43585 0.35661-0.87171 0.19812-0.47548 0.39623-0.91134 0.1585-0.31699 0.27737-0.63397 0.11887-0.35662 0.27736-0.6736 0.0793-0.1585 0.15849-0.23774 0.23774-0.11887 0.31699-0.23774 0.11887-0.11887-0.11887-0.27737 0.0396-0.0396 0.0793-0.11887 0.0396-0.0792 0.0792-0.0792 0.0396-0.0396 0.0793-0.11887 0.0793-0.0396 0.19812-0.0396 0.11887 0 0.19812-0.0793 0.31698-0.31698 0.35661-0.55472 0.0792-0.27737 0.11887-0.51511 0.0792-0.27736 0.15849-0.59435-0.11887 0.11887-0.27736 0.23774-0.11887 0.11887-0.31699 0.31699 0.19812-0.55473 0.31699-0.99059 0.15849-0.47548 0.27736-0.91133 0.0396-0.0793 0.11887-0.11887 0.0793-0.0396 0.11887-0.11888 0.0793-0.0792 0.11887-0.11887 0.0793-0.0792 0.19812-0.23774-0.0793 0.27737-0.1585 0.47549-0.0396 0.19811-0.11887 0.39623 0.1585-0.11887 0.27737-0.23774 0.15849-0.11887 0.23774-0.15849 0.15849-0.0396 0.27736 0.0396 0.11887 0.0396 0.23774 0.11887l0.31699-0.31699h0.0793q-0.0396 0.19812-0.0396 0.43586 0 0.19812-0.0396 0.39623-0.0793 0.27737-0.15849 0.55473-0.0793 0.27736-0.1585 0.59435v-0.0396h0.0396z"/>
  <path d="m168.55 148.27h0.11887l0.0396-0.0396h-0.0396zm-3.4472 4.3982q0.0396-0.0396 0.0396-0.11887h-0.0396q0 0.0792-0.0396 0.11887h0.11887zm3.4076-8.1228q0-0.0396 0-0.0396 0.0396-0.0396 0.0396-0.0792h-0.0396q0 0.0396-0.0396 0.0792 0 0 0 0.0396zm-4.8737 10.183q-0.0792 0.23774-0.0792 0.35661h0.11887q0-0.11887 0.0792-0.35661zm5.1114-7.0133q0.27737-0.43586 0.47548-0.87172 0.23775-0.47548 0.31699-0.95096-0.31699 0.43586-0.5151 0.91134-0.1585 0.43586-0.31699 0.91134zm2.2982-4.3982q-0.99058 0.95096-1.3076 2.2585 0.35661-0.55472 0.6736-1.1094 0.35661-0.59435 0.6736-1.1491zm2.0604-3.1699q0 0.0396-0.0396 0.0792 0 0 0 0.0396 0-0.0396 0-0.0396 0.0396-0.0396 0.0396-0.0792h0.11887zm-7.6869 9.153q0.27736-0.19812 0.27736-0.55473 0.19812-0.27737 0.39624-0.51511 0.19811-0.27736 0.43585-0.59435v0.35661q0.0793-0.0792 0.1585-0.11887 0.19811-0.31698 0.35661-0.59435 0.19811-0.31699 0.39623-0.6736-0.19812-0.0396-0.31699-0.0396-0.11887-0.0396-0.27736-0.0793 0.15849-0.27736 0.23774-0.55472 0.0793-0.27737 0.39623-0.55473 0.1585 0.15849 0.19812 0.23774 0.23774-0.19812 0.27737-0.27737 0.0396-0.0792 0.0792-0.35661-0.15849 0.0793-0.27736 0.11887 0-0.0396-0.0396-0.0396 0-0.0396 0-0.0793 0.0792-0.19811 0.15849-0.39623 0.0793-0.19812 0.27736-0.39623 0.0793-0.0793 0.11887-0.11887 0.0793-0.0792 0.1585-0.0792 0.43585 0.0396 0.55472-0.23774 0.1585-0.27737 0.35662-0.47548-0.0396-0.1585-0.0793-0.27737 0-0.15849-0.0793-0.35661 0.19812-0.19811 0.39624-0.35661 0.23774-0.19812 0.43585-0.39623 0.11887-0.11887 0.1585-0.0396 0.0396 0.0396 0.0792 0.11887l-0.0396-0.0396v0.0396l0.83209-0.59435q0.51511-0.39623 1.0302-0.6736 0.55473-0.31698 1.1095-0.63397 0.27736-0.15849 0.55472-0.23774 0.27737-0.11887 0.59436-0.11887-0.0793 0.0793-0.19812 0.15849-0.0793 0.0396-0.23774 0.1585 0.63397-0.1585 1.2283-0.27737-0.15849-0.23774-0.39623-0.11887t-0.43586 0.0396q0.35661-0.27737 0.63398-0.27737 0.31698 0 0.63397 0 0.23774 0 0.43586 0 0.23774-0.0396 0.5151-0.15849 0.35661-0.15849 0.71322-0.23774 0.39624-0.0793 0.75285-0.19812h0.11887q0.59435 0.11887 1.2283 0.15849 0.63397 0 1.0698 0.43586 0.11887 0.11887 0.23774 0.23774 0.15849 0.0793 0.35661 0.19812 0-0.15849 0.0793-0.39623 0.75284 0.19811 1.1491 0.71322 0.43586 0.47548 0.71323 1.1094 0.11887 0.27737 0.11887 0.63398 0 0.31698 0.0396 0.63397-0.0396 0.6736-0.0396 1.3076 0 0.63398 0 1.3076 0 0.11887-0.0396 0.23774 0 0.11887 0 0.23774-0.0792 0.39623-0.35661 0.55473-0.35661 0.19811-0.47548 0.5151-0.19812 0.6736-0.47548 1.3076-0.27736 0.63398-0.59435 1.3076-0.0793 0.15849-0.15849 0.31698-0.0793 0.11887-0.31699 0.11887-0.0396 0-0.0793 0.0793-0.0396 0.0793-0.0793 0.15849-0.0792 0.1585-0.15849 0.31699-0.0396 0.11887-0.11887 0.23774-0.5151 0.1585-0.95096 0.11887-0.39624-0.0793-0.91134 0.35661-0.0793-0.0792-0.11887-0.15849 0-0.11887-0.0793-0.23774l-0.95096 0.71322q-0.39623 0.31699-0.63397 0.35661-0.23774 0.0396-0.55473-0.15849-0.1585-0.0793-0.35661-0.11887-0.1585-0.0396-0.31699-0.11887-0.63397-0.1585-0.35661-0.91134 0.15849-0.39624 0.43586-0.79247 0.19811-0.31699 0.31698-0.6736t0.31699-0.6736q0.31699-0.63397 0.43586-1.2283t0.27736-1.1887q0-0.1585 0-0.27737 0.0396-0.15849 0.0396-0.31699 0.0396-0.19811 0-0.39623t0.15849-0.39623q0.0396-0.0396 0.0396-0.1585 0-0.31699-0.0396-0.63397 0-0.35661 0-0.6736 0-0.19812-0.0396-0.31699-0.0396-0.15849-0.23774-0.23774 0.0792-0.31699-0.11887-0.47548-0.1585-0.19812-0.23774-0.39623-0.1585-0.23774-0.23774-0.23774-0.0793 0-0.39624 0.19811-0.79247 0.47548-1.268 1.1491-0.47548 0.63398-0.79247 1.3868-0.0792 0.19812-0.19811 0.43586-0.11887 0.19812-0.23774 0.39623-0.0793 0.19812-0.19812 0.43586-0.11887 0.23774-0.19812 0.47548-0.0396 0.0793-0.0396 0.11887 0.0396 0.0396 0 0.11887-0.31699 0.51511-0.47548 1.0302-0.1585 0.51511-0.31699 1.0698-0.0793 0.1585-0.15849 0.31699-0.0793 0.11887-0.1585 0.27736-0.19811 0.39624-0.23774 0.75285-0.0396 0.31699 0.19812 0.59435 0.0792 0.0793 0.15849 0.11887 0.0792 0.0396 0.11887 0.19812h-0.5151q-0.0396 0.0792-0.0793 0.11887-0.0396 0-0.0396 0.0396l-1.1887 3.9227q-0.75285 2.2982-1.0698 4.5963-0.15849 0.99058-0.27736 1.9812-0.0793 0.95096-0.19812 1.9415-0.0792 0.6736-0.11887 1.3076 0 0.59435-0.0396 1.2283 0 0.19812 0.0396 0.39624 0.0793 0.15849 0.11887 0.35661 0.0793 0.55472 0 1.1491 0.0793 0.59435 0.35661 0.99058 0.59436-0.63397 1.1095-1.2283 0.55473-0.59435 0.91134-1.3076 0.5151-0.95096 0.79247-1.9019 0.31698-0.95096 0.59435-1.9019 0.23774-0.67359 0.39623-1.3472 0.19812-0.71322 0.55473-1.3868 0.0793-0.0793 0.11887-0.23774 0.0793-0.15849-0.11887-0.23774-0.0396 0-0.0396-0.0396l-0.0396-0.0396q0.43586-0.23774 0.35661-0.47548-0.0792-0.27736-0.0396-0.47548 0.11887-0.59435 0.59435-1.0698 0.27737-0.35661 0.71322-0.35661 0.27737 0 0.35661-0.0793 0.47548-0.27736 0.95097-0.19812 0.47548 0.0793 0.91133-0.35661 0.0793 0.0793 0.19812 0.11887 0.11887 0.0396 0.19812 0.11887 0.15849-0.0792 0.27736-0.11887 0.11887-0.0396 0.31699-0.0792 0.71322-0.1585 0.47548 0.43585-0.0793 0.31699-0.23774 0.6736-0.11887 0.31699-0.23774 0.63398-0.19812 0.63397-0.39623 1.2679-0.19812 0.59436-0.31699 1.2283-0.19812 1.0698-0.51511 2.1397-0.31698 1.0698-0.71322 2.1397-0.0792 0.23774-0.15849 0.47548-0.0793 0.23774-0.1585 0.47548t-0.15849 0.31699q-0.63397 1.0302-1.1491 2.1-0.5151 1.0302-1.3472 1.9812-0.1585 0.23774-0.27737 0.31699-0.75284 0.55473-1.5453 1.0698-0.75285 0.47548-1.6642 0.5151-0.59436 0-1.2283 0.35661-0.47548 0.27737-0.99059 0.35662-0.47548 0.0396-1.0302 0.15849-0.0396 0-0.19812-0.0793l-1.1887-0.35661q-0.0793-0.0396-0.11887-0.0793 0-0.0396-0.0792-0.0396-0.51511 0-0.87172-0.23774-0.31698-0.23774-0.63397-0.47548-0.95096-0.6736-1.1491-1.8623-0.0793-0.55473-0.15849-1.1491-0.0396-0.59435-0.11887-1.1491-0.0793-0.31699-0.1585-0.63397-0.0792-0.35661-0.0396-0.71322 0.0396-0.59436 0.0396-1.1491 0-0.59435 0.11887-1.1887 0-0.15849 0-0.15849-0.19811-0.43586-0.0396-0.91134 0.15849-0.5151 0.11887-0.99058 0-0.43586 0.15849-0.95097 0.1585-0.5151 0.23774-1.0302 0.0396-0.19812 0.0396-0.35661 0-0.1585 0-0.35662 0-0.27736 0.0396-0.55472 0.0793-0.27737 0.11887-0.55473 0.0396-0.39624 0.19812-0.75285 0.19812-0.39623 0.27736-0.79246 0.0793-0.35662 0.19812-0.71323 0.11887-0.39623 0.27736-0.79246 0.0396-0.11887 0.1585-0.23774 0.15849-0.11887 0.23774-0.23775 0 0.0396-0.0396 0.0792 0 0 0 0.0396 0-0.0396 0-0.0396 0.0396-0.0396 0.0396-0.0792 0.0792-0.19811 0.15849-0.39623 0.0793-0.19812 0.27736-0.39623 0.19812-0.1585 0.19812-0.35661 0.0396-0.23774-0.11887-0.39624-0.0793-0.0792-0.11887-0.15849 0-0.0793-0.0793-0.1585-0.23774 0.11887-0.47548 0.1585-0.19811 0-0.31698-0.27737h0.39623q0.31699 0.0793 0.43586 0 0.11887-0.0792 0.23774-0.39623 0.0793-0.27736 0.15849-0.5151 0.11887-0.27737 0.23774-0.55473 0 0 0.39624-0.19812 0.0396-0.0793 0.0792-0.27736 0.0396-0.19812 0.11887-0.39624 0.11887-0.35661 0.39624-0.5151z"/>
  <path d="m188.68 159.16v-0.0396zm-2.0208 0.39623q0.83209 0.11887 1.7038-0.19812 0.0792-0.23774 0.0396-0.43585 0-0.23775 0-0.47549t0.0396-0.43585q0.0793-0.23774 0.31699-0.47548-0.0396-0.0793-0.0793-0.1585-0.0396-0.0792-0.0396-0.15849 0-0.35661 0-0.71322 0.0396-0.35661 0.0793-0.71322 0-0.0793 0.0396-0.19812 0.0793-0.11887 0.23774 0 0.0793-0.1585 0.0793-0.23774-0.27737 0.0396-0.35661-0.11887-0.0793-0.19812-0.11887-0.43586-0.19812 0.27736-0.27737 0.5151-0.0792 0.23774-0.39623 0.39624-0.19812 0.0793-0.23774 0.19812-0.0396 0.11887-0.0396 0.23774t0 0.23774-0.1585 0.19811v-0.0396 0.0396q-0.19812 0.35661-0.39623 0.71323-0.1585 0.35661-0.23774 0.75284-0.0793 0.35661-0.31699 0.75284-0.43586 0.59436 0.11887 0.71323zm3.5265-12.838q0.0396-0.0396 0.0793-0.0396 0.0396-0.0396 0.0793-0.11887 0-0.0396-0.0793-0.11887l-0.11887 0.11887q0 0.0396 0 0.0793 0.0396 0 0.0396 0.0396zm-0.95096 2.6548q0.0793-0.15849 0.1585-0.27736 0.0792-0.1585 0.15849-0.31699h-0.11887q-0.0793 0.15849-0.1585 0.31699-0.0396 0.11887 0.0396 0.27736zm0.83209-0.87171h-0.0396 0.11887zm-1.1094 5.151q0-0.0396-0.0793-0.11887 0 0.0396-0.0793 0.11887h0.0793q0.0396-0.0396 0.0396-0.11887zm0-0.63397q0.31698-0.0396 0.35661-0.0793 0.0793-0.0396 0.15849-0.27736l0.0396-0.0396-0.0396 0.0396q-0.35661 0-0.5151 0.35661zm0.0792 3.0114q-0.0396 0.0396-0.0396 0.11887h0.11887zm4.2001-16.285q-0.27737 0.43586-0.59435 0.83209-0.27737 0.35662-0.0793 0.79247 0 0.0792-0.0396 0.1585-0.0396 0.0396 0 0.11887l-0.11887 0.95096q-0.0792 0.63397 0.0396 1.1887 0.11887 0.51511-0.0396 1.1491-0.15849 0.31699 0.1585 0.31699 0 0.0396-0.0396 0.0792 0 0 0 0.0396 0-0.0396 0-0.0396 0.0396-0.0396 0.0396-0.0792 0.0793-0.55473 0.11887-1.1095 0.0793-0.59435 0.15849-1.1491 0.0793-0.39623 0.11887-0.75284 0.0793-0.39624 0.0793-0.75285 0-0.27736 0.11887-0.71322 0.0793-0.23774 0.15849-0.5151 0.11887-0.27737-0.0792-0.51511zm0.15849-1.0302h0.0396l-0.0396-0.0396zm-4.1208 9.5096q0.0793-0.23774 0.19812-0.47548 0.1585-0.27736 0.23774-0.5151 0.0793-0.43586 0.11887-0.87172 0.0396-0.47548 0.0793-1.0302-0.19812 0.31699-0.19812 0.35662l-1.5453 3.0906q-0.19812 0.39624-0.35661 0.79247t-0.31699 0.83209q-0.11887 0.23774-0.19812 0.51511-0.0792 0.23774-0.15849 0.47548-0.19812 0.47548-0.47548 0.95096-0.23774 0.47548-0.47548 0.95096-0.0793 0.19812-0.19812 0.39623-0.11887 0.1585-0.15849 0.35662-0.1585 0.79246-0.55473 1.5453-0.39623 0.71322-0.71322 1.4661l0.0396 0.0396v-0.0396q0.19812-0.0792 0.23774-0.19811 0.0793-0.1585 0.1585-0.27737 0.55472-1.1094 1.0698-2.2189 0.55473-1.1094 1.1094-2.2189 0.23774-0.5151 0.43586-1.0302 0.23774-0.5151 0.6736-0.99058 0.11887-0.1585 0.19812-0.27737 0.11887-0.15849 0.19811-0.31698 0.19812-0.31699 0.31699-0.63398 0.15849-0.35661 0.35661-0.6736zm-7.37 9.7077h-0.11887zm0.0793-0.6736q0-0.0793 0.0396-0.11887-0.0396 0.0396-0.0396 0.11887zm11.649 11.451q-0.0793 0.31699-0.0793 0.6736 0.0396 0.31698 0 0.67359l-0.35661 0.27737q-0.19811 0.0792-0.31698 0.15849-0.0793 0.0396-0.19812 0.11887-0.0793 0.0793-0.11887 0.1585-0.0396 0.0396-0.11887 0.0396-0.55473 0.11887-1.0698 0.35661-0.51511 0.23774-1.0698 0.15849-0.27736-0.0396-0.63397 0.23774-0.19812 0.19812-0.43586 0.31699t-0.47548 0.27736q-0.0396 0.0396-0.0793 0.0396-0.0396 0-0.0792 0.0396-0.0396 0-0.23774 0-0.1585-0.0396-0.35661-0.0396-0.19812-0.0396-0.39624-0.0793-0.15849-0.0396-0.15849-0.0792-0.0793-0.19811-0.1585-0.39623-0.0792-0.23774 0.11887-0.55473 0.19812-0.27736 0.11887-0.71322 0-0.43586 0.0793-0.87171 0.0793-0.43586 0.1585-0.87172 0.0792-0.23774 0.0396-0.43586 0-0.23774 0.0793-0.47548 0.15849-0.55473 0.0792-1.0302-0.0396-0.5151 0.23774-1.0698 0.0792-0.19812 0-0.39623-0.0396-0.19812-0.0396-0.39624-0.0396-0.39623-0.0793-0.75284 0-0.39624 0-0.79247 0.0396-0.11887 0.1585-0.23774 0.15849-0.15849 0.0792-0.31699 0-0.0792 0.0396-0.11887h-0.0396q-0.0396 0.0396-0.0396 0.11887-0.0792-0.19811-0.15849-0.35661-0.0793-0.15849 0.11887-0.43586 0.0792-0.0792 0.0396-0.15849 0-0.0793 0-0.19812-0.11887 0.0396-0.19812 0.0396-0.0792 0-0.15849 0.0396-0.83209 0.39623-1.5849 0.5151-0.75284 0.0792-1.5453 0.1585-0.31699 0.0396-0.43586 0.11887-0.11887 0.0793-0.31699 0.43586l0.31699-0.1585q-0.0793 0.23774-0.15849 0.43586-0.0396 0.19812-0.1585 0.39623-0.11887 0.1585-0.31698 0.27737-0.1585 0.11887-0.35661 0.27736-0.0396 0.0396-0.0793 0.0793-0.0396 0-0.0793 0.0793-0.15849 0.35661-0.31698 0.75284-0.11887 0.35661-0.31699 0.83209 0.19812-0.15849 0.27736-0.23774 0.0793-0.0793 0.23774-0.19812-0.0396 0.1585-0.0396 0.27737 0.0396 0.0793-0.0396 0.15849-0.19812 0.27737-0.31699 0.55473-0.0793 0.27736-0.39624 0.5151-0.27736 0.27737-0.15849 0.51511 0.0793 0.15849-0.0396 0.35661-0.43586 0.83209-0.59435 1.6642-0.0793 0.23774-0.19812 0.31699-0.0793 0.0396-0.39624-0.0396-0.19811 0.43585-0.63397 0.47548-0.59435 0.0792-0.99059 0.11887-0.35661 0-1.0302-0.19812-0.0793 0-0.23774 0.0793-0.0793 0.0792-0.31699 0.23774-0.47548 0.43586-1.0302 0.43586-0.5151 0-0.75285-0.43586-0.43585-0.95096 0.31699-2.1397 0.19812-0.31698 0.31699-0.63397 0.11887-0.35661 0.31699-0.6736 0.0396-0.0793 0-0.15849 0-0.11887 0.0792-0.19812 0.19812-0.19812 0.31699-0.35661 0.11887-0.19812 0.11887-0.47548 0.0396-0.19812 0.11887-0.43586 0.11887-0.23774 0.23774-0.47548 0.19812-0.31699 0.27737-0.63397 0.11887-0.35661 0.43585-0.6736l0.23774 0.11887q0.27737-0.35661 0-0.43586-0.15849-0.0396-0.0792-0.27736l0.47548-1.1887 0.11887-0.11887q0.31699-0.31698 0.39623-0.47548 0.0793-0.15849 0.1585-0.47548 0.0396-0.0792 0.0396-0.11887 0-0.0396 0.0396-0.11887 0.31699-0.59435 0.59435-1.1887 0.27737-0.59435 0.71323-1.1491 0.0792-0.0792 0.15849-0.31699 0.0396-0.19811 0.19812-0.59435 0.19811-0.55473 0.71322-0.6736-0.0396-0.35661 0-0.67359 0.0396-0.31699 0.47548-0.6736 0.19812-0.1585 0.23774-0.39624 0.0793-0.27736 0.15849-0.47548 0.11887-0.27736 0.23774-0.5151 0.11887-0.27737 0.27737-0.55473 0.0792-0.0793 0.11887-0.23774 0.0396-0.15849 0.27736-0.11887 0-0.0793-0.0396-0.19812 0-0.11887 0.0396-0.19811 0.15849-0.31699 0.27736-0.55473 0.11888-0.27737 0.27737-0.55473 0.31699 0.0793 0.47548-0.15849 0.19812-0.23774 0.47548-0.31699-0.15849-0.19812-0.23774-0.19812-0.0396-0.0396-0.35661 0.0396 0.15849-0.27737 0.27736-0.51511t0.23774-0.47548q0.0792-0.19812 0.27737-0.23774 0.23774-0.0793 0.35661-0.23774 0.0793-0.15849 0.0396-0.31699 0-0.19812 0.0793-0.27736 0.31699-0.31699 0.35661-0.6736 0.0396-0.35661 0.23774-0.6736 0.15849-0.27736 0.23774-0.55473 0.11887-0.27736 0.27736-0.59435 0.1585-0.31698 0.31699-0.59435 0.19812-0.27736 0.39624-0.55473 0.15849-0.0792 0.27736-0.0792 0.11887-0.0396 0.19812-0.11887 0.27736-0.27737 0.47548-0.6736 0.0792-0.19812 0.0792-0.35661 0.0396-0.1585 0.0793-0.35661 0.11887-0.59435 0.6736-0.87172v-0.0396q0-0.0793 0-0.0793 0-0.0396-0.0396-0.0396 0-0.0396 0-0.0793 0.55472-0.5151 0.67359-1.0302 0.11887-0.55472 0.19812-1.1094 0.0793-0.43586 0.27736-0.79247 0.19812-0.35661 0.39624-0.75285 0.0793-0.15849 0.23774-0.19811 0.15849-0.0396 0.27736 0.0396 0.11887 0.0793 0.19812 0.19812 0.11887 0.11887 0.23774 0.23774 0.47548-0.51511 0.6736-1.1887 0.0793-0.1585 0.0793-0.27737 0.0396-0.15849 0.11887-0.31699 0.11887-0.43585 0.43585-0.63397 0.35661-0.23774 0.71323-0.39623 0.27736-0.1585 0.35661 0.23774l0.11887 0.71322q0.31698-0.0793 0.63397-0.0793 0.31699-0.0396 0.63398-0.11887 0.43585-0.0793 0.55472 0.0396 0.1585 0.11887 0.0793 0.51511-0.0793 0.23774-0.11887 0.47548 0 0.23774-0.0793 0.47548-0.0396 0.31699-0.0792 0.59435-0.0396 0.27737-0.0793 0.59435-0.0793 0.71322-0.15849 1.4264-0.0793 0.71322-0.1585 1.4264-0.0793 0.35661 0 0.6736 0.0793 0.63397-0.0396 1.3076-0.0793 0.6736-0.27737 1.3472-0.0792 0.19811-0.11887 0.43585 0 0.23774 0 0.43586 0.0793 0.55473 0 1.1491-0.0792 0.55473-0.15849 1.1094-0.0792 0.43586-0.15849 0.91134-0.0396 0.43586-0.11887 0.87172l-0.23774 2.6151q-0.0793 0.55473-0.11887 1.1095 0 0.55473-0.0793 1.1094-0.0396 0.27737-0.11887 0.55473-0.0396 0.27737-0.0396 0.55473-0.0396 0.19812-0.0396 0.35661t0 0.35661q-0.0396 0.19812-0.0396 0.43586 0 0.19812 0 0.39623 0 0.0793-0.0396 0.19812 0 0.11887 0.0396 0.19812 0.19812 0.43586 0.0793 0.95096-0.0793 0.5151-0.0793 0.99058-0.0396 0.39624-0.0793 0.79247 0 0.39624 0.0793 0.79247 0 0.11887-0.0396 0.1585-0.1585 1.0302-0.31699 2.1-0.11887 1.0302-0.31699 2.0604-0.0793 0.59435-0.15849 1.1887-0.0793 0.59435-0.1585 1.1887z"/>
  <path d="m199.44 172.04h0.11887l0.0396-0.0396h-0.11887zm-2.7736-4.7548 0.0792-0.0396q0-0.0793 0.0396-0.11887l-0.0396 0.0396q0 0.11888 0 0.11888zm13.63-12.323q0 0.0396 0.0793 0.11887 0 0.0396 0.0793 0.11887 0-0.0792 0.0396-0.11887l-0.11887-0.11887q0-0.0396-0.0793-0.11887 0 0.0793-0.0396 0.11887v0.11887zm0.47548 6.1416q0 0.0396-0.0396 0.0793 0 0 0 0.0396 0-0.0396 0-0.0396 0.0396-0.0396 0.0396-0.0793zm-0.0396-4.3586q0.0793 0.31698 0.0793 0.59435 0 0.27736 0.0396 0.59435l0.0396-0.0793-0.11887-1.0698-0.0792 0.0396zm-13.908 11.134q0.27737 0.23774 0.35661 0.31698 0.11887 0.19812 0.11887 0.43586-0.19811-0.19812-0.27736-0.31699-0.1585-0.23774-0.23774-0.39623zm11.015-2.1q-0.31699 0.35661-0.63397 0.71322-0.31699 0.31698-0.63398 0.63397 0.31699-0.27736 0.47548-0.43586 0.19812-0.15849 0.35661-0.27736 0.11887-0.11887 0.19812-0.23774 0.11887-0.15849 0.31699-0.39623zm-0.91134 1.2283q0.19812-0.19812 0.39624-0.39623 0.23774-0.23774 0.47548-0.43586l0.39623-0.43586 0.31699-0.31699q0.0792-0.0792 0.15849-0.11887 0.43586-0.43585 0.75285-0.91133 0.31698-0.51511 0.59435-1.0302h-0.1585q-0.55472 1.0698-1.3472 1.9019-0.19812 0.19812-0.39624 0.43586-0.15849 0.19812-0.35661 0.39623-0.19811 0.19812-0.39623 0.43586-0.15849 0.19812-0.39623 0.39623l0.0792 0.0793zm2.1 1.0302v0.0396q-0.0792 0.0793-0.11887 0.11887-0.0396 0.0396-0.11887 0.11887-0.0792 0.0793-0.11887 0.11887 0 0.0396-0.0793 0.11887-0.11887 0.0793-0.23774 0.19812-0.0792 0.11887-0.19811 0.23774-0.19812 0.19812-0.39624 0.43586-0.19811 0.23774-0.43585 0.47548-0.0793 0.0793-0.11887 0.11887 0 0.0396-0.0793 0.11887-0.0793 0.0793-0.11887 0.11887-0.0396 0.0396-0.11887 0.11887-0.1585 0.1585-0.27737 0.23774-0.0792 0.0793-0.15849 0.11887-0.0793 0.0396-0.15849 0.11887-0.55473 0.39624-1.268 0.71322-0.31699 0.1585-0.63398 0.23774-0.31698 0.0793-0.63397 0.1585-0.39624 0.0792-0.55473 0.0792h-3.3284q-0.75284 0.0396-1.5057-0.0792h-0.63398q-0.15849 0-0.23774-0.0396-0.0793-0.0396-0.19812-0.0396-0.11887-0.0396-0.19811-0.11887-0.1585-0.0793-0.19812-0.11887-0.1585-0.0793-0.19812-0.11887-0.59435-0.35661-1.0698-0.83209-0.47548-0.51511-0.63398-1.1095-0.27736-0.63397-0.31698-1.2283-0.0396-0.31699-0.0396-0.59435 0-0.27737 0-0.59436 0.0396-0.31698 0.0793-0.63397 0.0396-0.31699 0.11887-0.63397 0.11887-0.6736 0.39623-1.1887 0.23775-0.55472 0.51511-1.0698 0.31699-0.55473 0.63397-1.1094 0.19812-0.0793 0.35661-0.11887 0.1585-0.0793 0.27737-0.0396 0.23774 0.0793 0.11887 0.75285-0.0396 0.0792 0.0793 0.0396 0.11887-0.0396 0.19811-0.0396-0.19811 0.5151-0.39623 0.99058-0.1585 0.47548-0.35661 0.95096-0.43586 1.0302-0.55473 1.9019-0.0396 0.19811-0.0396 0.59435 0.0396 0.19812 0.0396 0.59435l0.11887 0.59435q0.11887 0.31699 0.27736 0.51511 0.31699 0.43585 0.91134 0.75284 0.11887 0.0793 0.27737 0.11887 0.15849 0.0396 0.31698 0.11887 0.19812 0.0396 0.31699 0.0793 0.15849 0 0.35661 0.0396h0.47548q0.31699 0 0.47548 0.0396 0.47548 0.0793 0.87172 0.23775 0.0396 0.0396 0.19812 0.11887 0.15849 0.0792 0.23774 0.0792h0.71322q0.83209-0.0792 1.5849-0.43586 0.0793-0.0792 0.1585-0.11887 0.0792-0.0792 0.15849-0.11887 0.23774-0.0792 0.39624-0.11887 0.19811-0.0792 0.43585-0.15849 0.23774-0.11887 0.43586-0.23774 0.35661-0.19812 0.63398-0.39623 0.31698-0.23774 0.63397-0.51511 0.63397-0.59435 1.0302-1.1887-0.75285 0.6736-1.3868 1.1491-0.75285 0.5151-1.3076 0.6736-0.43586 0.15849-1.0302 0.27736-0.55473 0.11887-0.99059 0.11887-0.83209 0.0396-1.7038 0-0.0396-0.0793-0.0793-0.11887-0.0396-0.0396-0.0793-0.11887-0.0396-0.11887-0.23774-0.19812l-0.47548-0.11887h-0.83209q-0.0793 0-0.23774-0.0792-0.19812-0.0396-0.51511-0.19812 0.19812 0.19812 0.31699 0.27736 0.0792 0.0793 0.1585 0.11887 0.0792 0 0.15849 0.0793-0.43586 0-0.91134-0.19812-0.23774-0.0792-0.39623-0.19811-0.11887-0.1585-0.19812-0.31699-0.27736-0.35661-0.39624-0.95096-0.0792-0.27737-0.11887-0.55473 0-0.27737-0.0396-0.59435 0-0.83209 0.39624-1.8227 0.19811-0.43586 0.43585-0.87171 0.23774-0.43586 0.47548-0.87172 0.35661-0.55473 0.71323-0.71322 0.55472-0.19812 1.1887-0.19812h1.0698q0 0.0396-0.0793 0.35661-0.0792 0.23774-0.19811 0.51511-0.0793 0.23774-0.1585 0.47548-0.31698 0.55473-0.5151 1.1094-0.19812 0.55473-0.31699 0.99059-0.0793 0.19812-0.11887 0.39623 0 0.19812-0.0396 0.35661 0 0.31699-0.0396 0.39624 0 0.0396-0.0396 0.0792 0 0 0.0793 0.0396 0.0792 0.0792 0.19811 0.0792h0.67355l0.23774 0.0396h1.5453q0.19811 0 0.31698 0 0.1585-0.0396 0.31699-0.0793 0.15849-0.0396 0.39623-0.11887 0.11887-0.0396 0.35662-0.23774 0.23774-0.15849 0.59435-0.47548 0.71322-0.71322 1.5453-1.6642 0.0793-0.11887 0.19812-0.23774 0.11887-0.11887 0.19811-0.23774l0.19812-0.19812q0.0396-0.0396 0.0396-0.0793l0.0793-0.0396q0.0793-0.11887 0.15849-0.23774 0.0793-0.11887 0.1585-0.23774 0.27736-0.55473 0.27736-1.1095 0.0396-0.0793 0.19812-0.23774 0.0396-0.0793 0.19812-0.23774 0.0792-0.31699 0.0792-0.63397 0.0396-0.31699 0.0793-0.63398 0.0396-0.31699 0-0.63397 0-0.35661-0.0396-0.6736-0.0793-0.31699-0.11887-0.63398 0-0.35661-0.0793-0.71322l-0.11887-0.71322-0.15849-0.59435q0-0.0793-0.0396-0.11887l-0.0792 0.0793q-0.0396 0.0396-0.0793 0.0396-0.0396 0-0.0396 0.0396 0-0.0396-0.0792-0.0396h-0.59435q-0.19812 0-0.39624 0-0.15849 0-0.35661-0.0396h-0.7528q-0.87172 0.0396-1.7038 0h-0.47548q-0.31699-0.0793-0.43586-0.11887-0.31699-0.0793-0.43586-0.11887-0.31698-0.0793-0.43585-0.1585-0.83209-0.31699-1.4661-1.0302-0.47548-0.59435-0.75284-1.5849 0-0.1585-0.0396-0.23774 0-0.1585-0.0396-0.23774 0-0.1585-0.0396-0.23774 0-0.1585-0.0396-0.23774 0-0.1585-0.0396-0.23775v-0.23774q0.0396-0.0792 0.0396-0.11887 0-0.0396 0.0396-0.11887v-0.15847l0.0396-0.0396v-0.0793l0.0793-0.15849v-0.0793l0.0396-0.0792 0.0793-0.27736q0.0792-0.1585 0.0792-0.23774l0.0792-0.23774 0.0793-0.23774 0.0792-0.19812q0.0396-0.11887 0.0396-0.19812 0.0396-0.11887 0.0792-0.23774 0.0793-0.19811 0.1585-0.35661 0.11887-0.19812 0.19811-0.39623l0.11887-0.35661q0.0396-0.11887 0.11887-0.27737 0.0396-0.43585 0.27737-0.75284 0.23774-0.35661 0.43586-0.71322l0.0396-0.0793-0.0793 0.11887q0.23774-0.31699 0.43586-0.6736 0.23774-0.35661 0.43586-0.6736 0.5151-0.71322 1.0302-1.2283l-0.0396 0.0396q0.11887-0.15849 0.23774-0.31699 0.11887-0.15849 0.19812-0.27736 0.31699-0.59435 0.83209-1.2283 0.1585-0.15849 0.27737-0.27736 0.11887-0.15849 0.27736-0.31699 0.0793-0.0792 0.15849-0.11887 0.0793-0.0396 0.1585-0.11887 0.0792-0.0792 0.15849-0.11887 0.0793-0.0396 0.15849-0.11887 0.0793-0.0792 0.1585-0.11887 0.0793-0.0396 0.15849-0.11887 0.0793-0.0792 0.31699-0.23774l0.15849-0.11887 0.19812-0.11887q0.11887-0.11887 0.35661-0.23774 0.35661-0.23774 0.79247-0.47548t0.87171-0.43586q0.11887-0.0792 0.19812-0.11887 0.11887-0.0396 0.23774-0.11887l0.0396-0.0396h0.0792l0.11887-0.0396 0.1585-0.0792q0.0792-0.0396 0.15849-0.11887l0.19812-0.0793q0.0792-0.0396 0.19811-0.0396 0.11887-0.0396 0.19812-0.0793 0.75285-0.23774 1.6246-0.35661 0.83209-0.0793 1.6642-0.0396 0.8321 0.0396 1.5849 0.27736 0.6736 0.19812 1.1095 0.47548 0.23774 0.1585 0.47548 0.31699 0.27736 0.15849 0.47548 0.35661t0.35661 0.43586q0.15849 0.19811 0.27736 0.43585 0.0793 0.0793 0.1585 0.23774l0.0396 0.11888 0.11887 0.11887q0 0.15849 0.0396 0.23774 0 0.15849 0.0396 0.23774 0 0.0396 0.0792 0.11887l0.0793 0.11887q0.0793 0.15849 0.15849 0.23774l0.11887 0.59435q0.0792 0.39623 0.0792 0.59435v0.71322q-0.0396 0.15849-0.0396 0.31699 0 0.11887-0.0396 0.27736 0.0792 0.1585 0 0.27737l-0.0396 0.27736q-0.0793 0.39623-0.0793 0.59435-0.0396 0.1585-0.0396 0.31699 0 0.11887-0.0396 0.27736-0.0396 0.0793-0.0396 0.11887 0.0396 0.0396 0 0.11887-0.0396 0.0793-0.0396 0.11887 0 0.0396-0.0396 0.11887-0.0396 0.0793-0.0396 0.11887 0 0.0396-0.0396 0.11887-0.0396 0.0793-0.0396 0.11887 0 0.0396-0.0396 0.11887-0.0396 0.19812-0.19811 0.51511 0 0.0396-0.0396 0.0793 0 0 0 0.0396t-0.0396 0.0793q0 0 0 0.0396l-0.19809 0.19809q-0.0396 0-0.0396 0.0396-0.0396 0.0793-0.0396 0.11887 0 0.0396-0.0396 0.11887-0.0396 0.0792-0.0396 0.11887 0 0.0396-0.0396 0.11887-0.11887 0.23774-0.23775 0.35661-0.15849 0.27737-0.35661 0.39624-0.15849 0.11887-0.31698 0.15849-0.11887 0-0.31699 0.0793-0.11887 0.0396-0.27736 0.11887-0.1585 0.0792-0.27737 0.11887-0.11887 0.0396-0.27736 0.0792-0.1585 0.0396-0.19812-0.11887 0.0396-0.35661-0.15849-0.47548-0.11887-0.11887-0.31699-0.0396-0.11887 0.0396-0.23774 0.11887-0.0793 0.0396-0.23774 0.11887-0.15849 0.0793-0.27736 0.15849-0.11888 0.0396-0.27737 0.11887-0.11887 0.0793-0.5151 0.23774-0.23774 0.11887-0.47548 0.11887-0.0793 0-0.19812-0.0792-0.11887-0.11887-0.27737-0.23774-0.35661-0.23774-0.31698-0.31699 0-0.0793 0.0396-0.11887 0-0.0793 0.0396-0.11887 0-0.0793 0.0396-0.11887 0.0396-0.11887 0.0396-0.31699 0.0396-0.0396 0.0396-0.11887 0-0.0793-0.0396-0.11887-0.0396-0.0396-0.0396-0.0396 0-0.0396-0.0396-0.0793-0.0396-0.0396-0.0396-0.0396 0-0.0396-0.0396-0.0792t0-0.11887q0.0396-0.11887 0.0396-0.15849 0.15849-0.11887 0.23774-0.23774 0.0396-0.0396 0.0396-0.11887 0.0396-0.0396 0.0396-0.11887 0.0396-0.0396 0.0396-0.11887 0.0396-0.0396 0.0396-0.11888 0.0396-0.0792 0.0396-0.11887 0-0.0396 0.0396-0.11887l0.11887-0.35661q0.0793-0.15849 0.0793-0.31698v-0.8321q0.0396-0.0396 0.0396-0.11887 0.0396-0.0396 0.0396-0.11887 0.15849-0.5151 0-1.0302-0.0396-0.1585-0.11887-0.39624-0.0793-0.23774-0.11887-0.31699-0.19812-0.19811-0.23775-0.15849-0.15849 0.0793-0.23774 0.0793h-0.0792q0-0.0396-0.0793-0.11887v0.0396q0.0396-0.11887-0.0396-0.11887-0.0396 0-0.1585 0.11887-0.11887-0.11887-0.35661-0.11887h-0.23774q-0.0792 0-0.11887 0.0396-0.0792 0.0396-0.15849 0.11887-0.11887 0.0793-0.27737 0.1585-0.11887 0.0792-0.31698 0.15849 0 0-0.1585 0.0793-0.0792 0.0792-0.15849 0.11887l-0.11887 0.11887q-0.15849 0.0793-0.15849 0.0793h-0.23774q-0.59436 0.0792-0.79247 0.75284 0.0792-0.0793 0.11887-0.0793 0.0396-0.0396 0.0792-0.0792t0.0792-0.0396q0.0396-0.0396 0.0793-0.0792l0.0396 0.0396-0.1189 0.1189-0.0792 0.0396-0.15849 0.1585-0.23779 0.23779-0.0793 0.0792q-0.19811 0.19812-0.35661 0.39624-0.11887 0.19812-0.27736 0.39623-0.15849 0.19812-0.31699 0.43586-0.15849 0.19812-0.31699 0.39623-0.15849 0.19812-0.31698 0.43586-0.1585 0.23774-0.27737 0.47548-0.23774 0-0.35661 0.11887-0.19811 0.1585-0.31698 0.35661-0.19812 0.23774-0.35662 0.51511-0.11887 0.27736-0.27736 0.47548 0.19812-0.0396 0.47548-0.0396-0.0793 0.15849-0.11887 0.31698 0 0.11887-0.0793 0.27737l-0.0396 0.0792v0.0793l-0.0396 0.0793q0 0.0396-0.0396 0.0792v0.11887q-0.0396 0.0396-0.0396 0.11887h-0.11887l-0.15849 0.0396h-0.0793q-0.0396 0 0.0396 0 0.11887-0.0396 0.19812-0.0396 0.0793 0 0.11887 0 0.0793 0-0.0396 0-0.1585 0.0793-0.1585 0.0793-0.19811 0.11887-0.27736 0.23774 0 0.0793 0 0.0793 0.0793 0.0793 0.0793 0.11887 0.0792 0.0793 0.0792 0.11887h0.31704q0.15849-0.11887 0.31699-0.11887 0.15849-0.0396 0.43586-0.0396h0.27737l0.5151-0.0793q0.31699-0.0396 0.55473-0.0396 0.27737-0.0396 0.55473-0.0793h1.4661q0.95096 0 1.6642 0.23774 0.35661 0.11887 0.59435 0.23774 0.31699 0.23774 0.43586 0.35661 0.35661 0.35661 0.35661 0.75285 0 0.0396 0 0.0792 0.0396 0 0.0396 0.0792 0 0.0793 0 0.11887 0.0396 0.0396 0.0396 0.11887 0 0.0793 0 0.11887 0.0396 0.0396 0.0396 0.11887 0.0396 0.0396 0.0396 0.0793 0 0 0.0396 0.0396t0.0396 0.11887h0.35661q-0.0792 0.31699-0.0792 0.59435 0.0396 0.0792 0.0396 0.31699l-0.0396 0.0396v0.0396q0 0.0396-0.0396 0.0792 0 0 0 0.0396v0.35661q0 0.19811-0.0396 0.39623 0 0.19812-0.0792 0.31699v0.35661q0.0792 0.27736 0.19812 0.35661 0.19811 0.0793 0.15849 0.27736 0 0.1585 0.0396 0.35661l0.0396 0.0396-0.0793-0.0396q0.19812 0.1585 0.27736 0.23774 0.0793 0.0793 0.11887 0.23774 0.0396 0.11888 0 0.35662 0.0396 0.0792 0.0396 0.27736v0.35661q0 0.19812-0.0793 0.59435 0 0.1585-0.0396 0.31699 0 0.11887 0.0396 0.23774 0.0793 0.47548 0 0.99058-0.0793 0.51511-0.23774 1.0698-0.31699 1.1094-0.83209 2.2189-0.19812 0.43586-0.55473 0.87171-0.31699 0.39624-0.63397 0.75285l-0.35661 0.35661q-0.0793 0.0793-0.1585 0.11887-0.0793 0.0793-0.15849 0.11887-0.0793 0.0793-0.11887 0.15849-0.0396 0.0396-0.11887 0.11887-0.0793 0.0793-0.1585 0.11887 0 0.0793-0.0396 0.11887-0.11887 0.11887-0.27736 0.43586-0.0793 0.11887-0.11887 0.23774-0.0396 0.11887-0.11887 0.27737-0.27737 0.19811-0.55473 0.43585-0.23774 0.19812-0.55473 0.43586l0.0793-0.11887q0 0.0396-0.0396 0.0793z"/>
  <path d="m263.56 132.77q0-0.0396 0.0396-0.0396t0.0793-0.0396q-0.0793 0-0.11887 0-0.0396-0.0396-0.11887-0.0396-0.0396 0-0.0793 0.0396 0 0-0.0396 0 0.15849 0.0792 0.19811 0.0792zm-4.7944-1.1094q0-0.0792 0.0396-0.11887-0.0396 0-0.0793 0 0-0.0396-0.0396-0.0396 0 0-0.0793 0.0793h0.11887zm-6.1813 2.4566q0.27737-0.0793 0.51511-0.11887 0.27736-0.0396 0.5151 0.15849h-1.0302zm-0.59435 0.0793q-0.15849 0.0396-0.39623 0.0396 0.0396-0.0396 0.0396-0.11887 0.15849-0.0396 0.39623-0.11887v0.0793zm1.0698-5.3888q-0.0396 0.11887 0 0.15849 0.0396 0 0.23774 0-0.0792-0.0792-0.11887-0.0792-0.0396-0.0396-0.11887-0.0792zm-3.4472 0.23774 0.0396-0.0396q0.0396-0.0396-0.0396-0.11887-0.0793 0.0792-0.1585 0.11887h0.11887zm-4.1208 0.0396h0.35661zm-13.115 0.23775v-0.0396h0.0396-0.0396zm-7.1718 7.053q0.1585-0.23774 0.19812-0.35661l0.35661-1.0698h-0.47548q-0.0396 0.15849-0.0793 0.31699-0.0396 0.15849-0.0792 0.31698-0.0396 0.19812-0.11887 0.43586-0.0396 0.19812 0.11887 0.39624zm-2.2585 1.5453v-0.0396l-0.0396 0.0396zm-4.9926 12.6v-0.0396q0.0396-0.0396 0.0396-0.0396 0-0.0396 0.0396-0.0792 0 0.0792-0.0396 0.11887 0 0 0 0.0396h-0.11887zm36.295-21.278q-0.0793 0-0.0793 0.0793l0.0396 0.0396q0.0396 0 0.11887-0.0793-0.0396 0-0.0792 0 0-0.0396-0.0396-0.0396zm12.283 2.6548q0.0793 0.0792 0.23774 0.11887 0.1585 0 0.35662 0.0792-0.0396 0.11887-0.0793 0.27737 0 0.11887-0.0793 0.27736-0.0793 0.31699-0.27736 0.47548-0.19812 0.11887-0.71322 0.1585-0.75285 0.0396-1.5057-0.0793-0.6736-0.15849-1.3868-0.15849t-1.3868 0.0792q-0.91134 0.0792-1.7831 0.11887-0.87171 0.0396-1.7038-0.0396h-0.35661q-0.6736 0.0793-1.3076 0.11887-0.59435 0.0396-1.268 0.11887-0.15849 0-0.35661 0.0396-0.15849 0.0396-0.43585 0.11887 0.27736 0.0793 0.43585 0.11887 0.1585 0 0.27737 0.0396 0 0.0792-0.0396 0.11887h-1.0698q-0.87171 0.0396-1.7434 0.0792-0.83209 0-1.7434 0.0396-1.5453 0.0793-3.1302 0.11887-1.5849 0-3.1302 0.0793-1.9019 0.0792-3.7642 0.11887-1.8227 0.0396-3.685 0.11887-0.63397 0.0396-1.2283 0.0396-0.59436-0.0396-1.1887-0.0396-0.43585 0-0.87171 0-0.43586-0.0396-0.91134 0.0792-0.39623 0.0793-0.79247 0.0793-0.39623-0.0396-0.83209-0.0396h-1.5453q-0.0396 0.0792-0.0396 0.11887 0 0.0396-0.0396 0.11887-0.0793 0.23774-0.11887 0.47548-0.0396 0.23774-0.23774 0.47548-0.0792 0.11887-0.11887 0.27736 0 0.1585-0.0793 0.31699-0.11887 0.5151-0.27736 1.0302-0.1585 0.5151-0.19812 1.0302 0 0.11887-0.0793 0.27736-0.0396 0.11887-0.11887 0.23774-0.27736 0.55473-0.5151 1.1491-0.19812 0.55473-0.19812 1.1095 0 0.0792-0.0792 0.19811-0.0396 0.11887-0.0793 0.19812-0.19812 0.47548-0.39624 0.95096-0.15849 0.47548-0.27736 0.95096-0.11887 0.39624-0.31699 0.79247-0.19811 0.35661-0.19811 0.75285-0.0396 0.15849-0.11887 0.31698-0.0396 0.1585-0.0793 0.35662-0.27736 0.67359-0.51511 1.3868-0.19811 0.6736-0.39623 1.3472-0.0396 0.15849-0.0793 0.31699-0.0396 0.15849-0.11887 0.31699-0.23774 0.47548-0.39623 0.95096-0.11887 0.47548-0.23774 0.95096 0 0.0793-0.0793 0.23774-0.19812 0.6736-0.39623 1.3472-0.1585 0.63397-0.43586 1.3076-0.35661 0.75284-0.59435 1.5057-0.19812 0.71322-0.47548 1.4661-0.27737 0.71323-0.51511 1.4264-0.19811 0.71322-0.43585 1.4264-0.19812 0.6736-0.39624 1.3076-0.19811 0.63398-0.39623 1.3076l-0.71322 2.2585q-0.0396 0.0793-0.0396 0.11887 0.0396 0.0396 0.0396 0.11887-0.0793 0.39623-0.19812 0.79247-0.11887 0.35661-0.19812 0.75284 0 0.0792-0.0396 0.11887 0.0793 0.51511-0.15849 1.0302-0.23775 0.47548-0.39624 0.99059-0.0793 0.19811-0.0793 0.35661 0.0396 0.15849 0.0396 0.35661-0.0396 0.63397-0.63398 0.79247l-0.23774 0.11887q-0.39623 0.43586-0.75284 0.59435-0.31699 0.11887-0.71322 0.11887-0.47548 0.0396-0.95097 0.11887-0.43585 0.0396-0.99058 0.27736-0.27736 0.11887-0.55473 0.11887-0.27736 0-0.55473 0.0793-0.15849 0.0396-0.39623 0.11887-0.27736 0.0396-0.47548 0-0.1585-0.0793-0.19812-0.43586-0.0793 0.11887-0.11887 0.23774-0.0396 0.0793-0.11887 0.19812-0.0793-0.23774-0.0793-0.19812l0.35661-1.4264q0.1585-0.63397 0.27737-1.2283 0.15849-0.63397 0.27736-1.2679 0.0793-0.23775 0.11887-0.47549 0.0793-0.23774 0.1585-0.47548 0.0396-0.0396 0.0396-0.11887l0.11887-0.35661q0.11887-0.35661 0.11887-0.71322 0.0396-0.35661 0.31699-0.75284 0.15849-0.23774 0.0792-0.47548-0.0792-0.31699 0-0.63398 0.11887-0.31699 0.19812-0.63397 0.19812-0.63398 0.39624-1.2283 0.19811-0.63397 0.39623-1.268 0.0793-0.31699 0.19812-0.59435 0.11887-0.27736 0.23774-0.59435 0.0792-0.23774 0.15849-0.43586 0.0793-0.23774 0.0793-0.47548 0.0792-0.31699 0.19811-0.6736 0.1585-0.35661 0.27737-0.71322 0.0793-0.23774 0.11887-0.47548 0.0793-0.23774 0.15849-0.47548 0.11887-0.31699 0.19812-0.63398 0.11887-0.31698 0.27736-0.63397 0.1585-0.35661 0.23774-0.71322 0.0793-0.39624 0.19812-0.79247 0.15849-0.47548 0.31699-0.95096 0.15849-0.47548 0.35661-0.95096 0.15849-0.55473 0.31699-1.1095 0.15849-0.59435 0.43585-1.1491 0.0793-0.11887 0.0793-0.35661 0-0.31699 0.11887-0.59435t0.43586-0.47548q-0.19812-0.27737-0.0396-0.59435 0.15849-0.35661 0.15849-0.6736 0.19812-0.19812 0.19812-0.39623 0.0396-0.19812 0.11887-0.39624 0.0396-0.15849 0.0792-0.27736 0.0793-0.1585 0.1585-0.31699l0.0396-0.0396-0.0396 0.0396q0.0792-0.31699 0.15849-0.5151h0.31699q0.0792-0.1585 0.11887-0.19812-0.0396-0.23774 0.0396-0.47548 0.11887-0.23774 0.23774-0.47548 0.23774-0.43586 0.27737-0.75285l0.59435-1.783q0.0792-0.19812 0.15849-0.31699 0.11887-0.11887 0.19812-0.27736 0.0792-0.11887 0.0396-0.27737-0.0396-0.15849 0.0396-0.31698 0.0793-0.23774 0.23774-0.47549 0.1585-0.23774 0.27737-0.47548 0.15849-0.27736 0.19812-0.55472 0.0792-0.27737 0.11887-0.51511 0.0792-0.27736 0.35661-0.55473 0.0396 0.0793 0.0792 0.11887 0.0396 0.0396 0.0793 0.11887 0.31699-0.63397 0.55473-1.2283 0.27736-0.63398 0.55473-1.2283h-0.71323q-0.23774 0-0.47548 0.0396-0.23774 0-0.47548 0.0396-0.83209 0.0793-1.6642 0.11887-0.83209 0.0396-1.6246 0.11887-0.75285 0.0396-1.4661 0.0793-0.71322 0-1.4264-0.1585-0.55473-0.11887-1.3472 0-0.31698 0.0793-0.71322 0.11887-0.35661 0-0.6736-0.15849-0.11887-0.0793-0.23774-0.11887-0.0792-0.0396-0.19811-0.11887-0.0793-0.0793-0.1585-0.11887-0.0396-0.0793-0.15849-0.11887-0.23774-0.0793-0.23774-0.35661 0.0793-0.19812 0.0396-0.39624-0.0396-0.19811 0.0793-0.39623 0.19812-0.27736 0.11887-0.5151-0.0396-0.27737 0.27736-0.55473 0.0396-0.0396-0.0396-0.11887-0.0793-0.0793-0.15849-0.1585-0.47548-0.47548-0.31699-0.99058 0.0396-0.11887 0.0793-0.19812 0.0792-0.11887 0.27736-0.23774 0.19812-0.11887 0.27736-0.27736 0.11887-0.1585 0.19812-0.31699 0.23774-0.31699 0.35661-0.35661 0.11887-0.0793 0.55473-0.11887 0.71322-0.0793 1.4264-0.15849 0.71322-0.0793 1.3868-0.0396 0.51511 0.0396 0.95096-0.0396 0.47548-0.0793 0.95097-0.11887 0.63397-0.0793 1.2283-0.0793 0.63398 0 1.2283-0.0396h1.6642q0.39623 0 0.59435-0.0396 0.99059-0.15849 2.0604-0.0396 0.47548 0.0396 0.95096 0 0.51511-0.0396 0.99059-0.0396 0.91134 0 1.8227-0.0396 0.91134-0.0396 1.8227 0.0793 0.15849 0.0396 0.31699 0 0.15849-0.0396 0.35661-0.0793 0.0793 0 0.11887-0.0396 0.0396 0 0.0793-0.0396 0.23774 0.23774 0.63397 0.11887 0.43586-0.1585 0.71322 0 0.0793 0.11887 0.19812 0 0.39623-0.11887 0.71322-0.0793 0.35661 0 0.6736-0.0396 0.99058-0.0793 1.9416-0.1585 0.99058-0.0792 1.9415-0.0792 0.47548 0 0.99059-0.0793 0.55473-0.0793 0.99058 0.0793 0.0793 0.0396 0.1585 0.0396 0.0792-0.0396 0.15849-0.0396 0.95096-0.0396 1.8227 0 0.43586 0.0396 0.83209 0 0.43586-0.0396 0.87171-0.0793 0.27737-0.0396 0.51511 0 0.23774 0 0.43586 0.11887 0.31698 0.19812 0.67359 0.15849 0.39624-0.0792 0.79247-0.0396 0.0793 0 0.19812-0.0793 0.11887-0.0792 0.23774-0.15849 0.31699 0.0396 0.59435 0.11887 0.27737 0.0793 0.55473 0.0396 0.31699-0.0792 0.59435-0.0396 0.31699 0 0.6736-0.0793-0.0396 0.11887-0.0793 0.23774 0 0.0793-0.0396 0.19812 0.15849-0.0396 0.27736-0.0396 0.1585 0 0.23774-0.0793 0.43586-0.23774 0.79247-0.23774 0.39624 0 0.83209 0.0793 0.19812 0.0396 0.59435 0.0396 0.0396-0.0793 0.0396-0.11887 0-0.0793 0.0396-0.15849h1.0302q-0.31699 0.75284 0.79247 0.79246 0.31698-0.43585 0.87171-0.27736 0.19812 0.0792 0.47548 0 0.71323-0.15849 1.3472-0.11887 0.6736 0.0396 1.3472 0 0.23774 0 0.55472 0.0793 0.35661 0.0792 0.6736 0.11887 0.35661 0.0396 0.79247-0.0396 0.27736-0.0792 0.59435-0.0396 0.31699 0 0.55473 0.0792 0.47548 0.11887 0.99058 0.0792 0.51511-0.0396 1.0302-0.0396h1.5453q0.23774 0 0.43585 0.15849 0.19812 0.11888 0.19812 0.27737-0.0396 0.35661-0.23774 0.5151-0.15849 0.11887-0.71322 0.11887-0.6736 0-1.3472 0-0.63397-0.0396-1.3076-0.0396-0.75284 0-1.5057 0.0396-0.75284 0.0396-1.5453 0.11887-0.79247 0.0793-1.5849 0.1585t-1.5849 0.0792q-0.75284 0-1.5057 0.11887-0.75284 0.11887-1.4661 0.0793-0.39624 0-1.0698 0.27737 0.11887 0.0396 0.19811 0.0792 0.11887 0.0396 0.23774 0.0396 0.8321 0 1.6642 0 0.87171-0.0396 1.7038-0.0396 0.39624 0 0.79247 0 0.39624 0 0.75285 0.11887 0.11887 0.0793 0.31698 0.0396 0.19812-0.0396 0.39624-0.0396 0.99058 0 1.9416 0 0.99058 0 1.9415 0.0396 0.0793 0 0.1585 0.0396 0.11887 0 0.27736 0.0396-0.23774 0.0793-0.47548 0.1585-0.19812 0.0396-0.39623 0.11887v0.11887q0.5151 0 0.99058 0.0396 0.47548 0 0.99059 0 0.55472 0 1.0698 0 0.55473-0.0396 1.0302 0.11887 0 0.11887-0.0793 0.27736-0.0396 0.11887 0.0396 0.19812z"/>
  <path d="m226.3 172.04h0.11887l0.0396-0.0396h-0.11887zm-2.7736-4.7548 0.0793-0.0396q0-0.0793 0.0396-0.11887l-0.0396 0.0396q0 0.11888 0 0.11888zm13.63-12.323q0 0.0396 0.0793 0.11887 0 0.0396 0.0792 0.11887 0-0.0792 0.0396-0.11887l-0.11887-0.11887q0-0.0396-0.0793-0.11887 0 0.0793-0.0396 0.11887v0.11887zm0.47548 6.1416q0 0.0396-0.0396 0.0793 0 0 0 0.0396 0-0.0396 0-0.0396 0.0396-0.0396 0.0396-0.0793zm-0.0396-4.3586q0.0792 0.31698 0.0792 0.59435 0 0.27736 0.0396 0.59435l0.0396-0.0793-0.11887-1.0698-0.0793 0.0396zm-13.908 11.134q0.27736 0.23774 0.35661 0.31698 0.11887 0.19812 0.11887 0.43586-0.19812-0.19812-0.27737-0.31699-0.15849-0.23774-0.23774-0.39623zm11.015-2.1q-0.31699 0.35661-0.63398 0.71322-0.31699 0.31698-0.63397 0.63397 0.31698-0.27736 0.47548-0.43586 0.19812-0.15849 0.35661-0.27736 0.11887-0.11887 0.19812-0.23774 0.11887-0.15849 0.31698-0.39623zm-0.91134 1.2283q0.19812-0.19812 0.39623-0.39623 0.23774-0.23774 0.47548-0.43586l0.39624-0.43586 0.19811-0.19812 0.11887-0.11887q0.0793-0.0792 0.1585-0.11887 0.43586-0.43585 0.75284-0.91133 0.31699-0.51511 0.59435-1.0302h-0.15849q-0.55473 1.0698-1.3472 1.9019-0.19811 0.19812-0.39623 0.43586-0.15849 0.19812-0.35661 0.39623-0.19812 0.19812-0.39623 0.43586-0.1585 0.19812-0.39624 0.39623l0.0793 0.0793zm2.1 1.0302v0.0396q-0.0793 0.0793-0.11887 0.11887-0.0396 0.0396-0.11887 0.11887-0.0793 0.0793-0.11887 0.11887 0 0.0396-0.0793 0.11887-0.11887 0.0793-0.23774 0.19812-0.0793 0.11887-0.19812 0.23774-0.19811 0.19812-0.39623 0.43586t-0.43586 0.47548q-0.0792 0.0793-0.11887 0.11887 0 0.0396-0.0792 0.11887-0.0793 0.0793-0.11888 0.11887-0.0396 0.0396-0.11887 0.11887-0.15849 0.1585-0.27736 0.23774-0.0793 0.0793-0.15849 0.11887-0.0793 0.0396-0.1585 0.11887-0.55472 0.39624-1.268 0.71322-0.31698 0.1585-0.63397 0.23774-0.31699 0.0793-0.63397 0.1585-0.39624 0.0792-0.55473 0.0792h-3.3284q-0.75284 0.0396-1.5057-0.0792h-0.63398q-0.1585 0-0.23774-0.0396-0.0793-0.0396-0.19812-0.0396-0.11887-0.0396-0.19812-0.11887-0.15849-0.0793-0.19812-0.11887-0.15849-0.0793-0.19811-0.11887-0.59435-0.35661-1.0698-0.83209-0.47549-0.51511-0.63398-1.1095-0.27736-0.63397-0.31699-1.2283-0.0396-0.31699-0.0396-0.59435 0-0.27737 0-0.59436 0.0396-0.31698 0.0793-0.63397 0.0396-0.31699 0.11887-0.63397 0.11887-0.6736 0.39623-1.1887 0.23774-0.55472 0.51511-1.0698 0.31698-0.55473 0.63397-1.1094 0.19812-0.0793 0.35661-0.11887 0.15849-0.0793 0.27736-0.0396 0.23775 0.0793 0.11888 0.75285-0.0396 0.0792 0.0792 0.0396 0.11887-0.0396 0.19812-0.0396-0.19812 0.5151-0.39624 0.99058-0.15849 0.47548-0.35661 0.95096-0.43585 1.0302-0.55472 1.9019-0.0396 0.19811-0.0396 0.59435 0.0396 0.19812 0.0396 0.59435l0.11887 0.59435q0.11887 0.31699 0.27736 0.51511 0.31699 0.43585 0.91134 0.75284 0.11887 0.0793 0.27736 0.11887 0.1585 0.0396 0.31699 0.11887 0.19812 0.0396 0.31699 0.0793 0.15849 0 0.35661 0.0396h0.47548q0.31699 0 0.47548 0.0396 0.47548 0.0793 0.87172 0.23775 0.0396 0.0396 0.19811 0.11887 0.1585 0.0792 0.23774 0.0792h0.71322q0.8321-0.0792 1.5849-0.43586 0.0793-0.0792 0.15849-0.11887 0.0793-0.0792 0.1585-0.11887 0.23774-0.0792 0.39623-0.11887 0.19812-0.0792 0.43586-0.15849 0.23774-0.11887 0.43586-0.23774 0.35661-0.19812 0.63397-0.39623 0.31699-0.23774 0.63398-0.51511 0.63397-0.59435 1.0302-1.1887-0.75285 0.6736-1.3868 1.1491-0.75285 0.5151-1.3076 0.6736-0.43585 0.15849-1.0302 0.27736-0.55472 0.11887-0.99058 0.11887-0.83209 0.0396-1.7038 0-0.0396-0.0793-0.0792-0.11887-0.0396-0.0396-0.0793-0.11887-0.0396-0.11887-0.23774-0.19812l-0.47548-0.11887h-0.83209q-0.0793 0-0.23774-0.0792-0.19812-0.0396-0.51511-0.19812 0.19812 0.19812 0.31699 0.27736 0.0792 0.0793 0.15849 0.11887 0.0793 0 0.1585 0.0793-0.43586 0-0.91134-0.19812-0.23774-0.0792-0.39624-0.19811-0.11887-0.1585-0.19811-0.31699-0.27737-0.35661-0.39624-0.95096-0.0793-0.27737-0.11887-0.55473 0-0.27737-0.0396-0.59435 0-0.83209 0.39623-1.8227 0.19812-0.43586 0.43586-0.87171 0.23774-0.43586 0.47548-0.87172 0.35661-0.55473 0.71322-0.71322 0.55473-0.19812 1.1887-0.19812h1.0698q0 0.0396-0.0793 0.35661-0.0793 0.23774-0.19812 0.51511-0.0792 0.23774-0.15849 0.47548-0.31699 0.55473-0.51511 1.1094-0.19811 0.55473-0.31698 0.99059-0.0793 0.19812-0.11887 0.39623 0 0.19812-0.0396 0.35661 0 0.31699-0.0396 0.39624 0 0.0396-0.0396 0.0792 0 0 0.0792 0.0396 0.0793 0.0792 0.19812 0.0792h0.67355l0.23774 0.0396h1.5453q0.19812 0 0.31699 0 0.15849-0.0396 0.31699-0.0793 0.15849-0.0396 0.39623-0.11887 0.11887-0.0396 0.35661-0.23774 0.23774-0.15849 0.59435-0.47548 0.71322-0.71322 1.5453-1.6642 0.0792-0.11887 0.19811-0.23774 0.11887-0.11887 0.19812-0.23774l0.19812-0.19812q0.0396-0.0396 0.0396-0.0793l0.0793-0.0396q0.0792-0.11887 0.15849-0.23774 0.0793-0.11887 0.15849-0.23774 0.27737-0.55473 0.27737-1.1095 0.0396-0.0793 0.19812-0.23774 0.0396-0.0793 0.19811-0.23774 0.0793-0.31699 0.0793-0.63397 0.0396-0.31699 0.0792-0.63398t0-0.63397q0-0.35661-0.0396-0.6736-0.0792-0.31699-0.11887-0.63398 0-0.35661-0.0792-0.71322l-0.11887-0.71322-0.1585-0.59435q0-0.0793-0.0396-0.11887l-0.0793 0.0793q-0.0396 0.0396-0.0793 0.0396-0.0396 0-0.0396 0.0396 0-0.0396-0.0793-0.0396h-0.59435q-0.19811 0-0.39623 0-0.15849 0-0.35661-0.0396h-0.7528q-0.87171 0.0396-1.7038 0h-0.47548q-0.31699-0.0793-0.43586-0.11887-0.31699-0.0793-0.43586-0.11887-0.31699-0.0793-0.43586-0.1585-0.83209-0.31699-1.4661-1.0302-0.47548-0.59435-0.75285-1.5849 0-0.1585-0.0396-0.23774 0-0.1585-0.0396-0.23774 0-0.1585-0.0396-0.23774 0-0.1585-0.0396-0.23774 0-0.1585-0.0396-0.23775v-0.23774q0.0396-0.0792 0.0396-0.11887 0-0.0396 0.0396-0.11887v-0.15847l0.0396-0.0396v-0.0793l0.0792-0.15849v-0.0793l0.0396-0.0792 0.0792-0.27736q0.0793-0.1585 0.0793-0.23774l0.1584-0.47548 0.0793-0.19812q0.0396-0.11887 0.0396-0.19812 0.0396-0.11887 0.0793-0.23774 0.0793-0.19811 0.15849-0.35661 0.11887-0.19812 0.19812-0.39623l0.11887-0.35661q0.0396-0.11887 0.11887-0.27737 0.0396-0.43585 0.27737-0.75284 0.23774-0.35661 0.43585-0.71322l0.0396-0.0793-0.0793 0.11887q0.23774-0.31699 0.43586-0.6736 0.23774-0.35661 0.43585-0.6736 0.51511-0.71322 1.0302-1.2283l-0.0396 0.0396q0.11887-0.15849 0.23774-0.31699 0.11887-0.15849 0.19812-0.27736 0.31698-0.59435 0.83209-1.2283 0.15849-0.15849 0.27736-0.27736 0.11887-0.15849 0.27737-0.31699 0.0792-0.0792 0.15849-0.11887 0.0793-0.0396 0.15849-0.11887 0.0793-0.0792 0.1585-0.11887 0.0792-0.0396 0.15849-0.11887 0.0793-0.0792 0.15849-0.11887 0.0793-0.0396 0.1585-0.11887 0.0793-0.0792 0.31699-0.23774l0.15849-0.11887 0.19812-0.11887q0.11887-0.11887 0.35661-0.23774 0.35661-0.23774 0.79247-0.47548 0.43585-0.23774 0.87171-0.43586 0.11887-0.0792 0.19812-0.11887 0.11887-0.0396 0.23774-0.11887l0.0396-0.0396h0.0792l0.11887-0.0396 0.15849-0.0792q0.0793-0.0396 0.1585-0.11887l0.19811-0.0793q0.0793-0.0396 0.19812-0.0396 0.11887-0.0396 0.19812-0.0793 0.75284-0.23774 1.6246-0.35661 0.83209-0.0793 1.6642-0.0396 0.83209 0.0396 1.5849 0.27736 0.6736 0.19812 1.1094 0.47548 0.23774 0.1585 0.47548 0.31699 0.27737 0.15849 0.47548 0.35661 0.19812 0.19812 0.35662 0.43586 0.15849 0.19811 0.27736 0.43585 0.0793 0.0793 0.15849 0.23774l0.0396 0.11888 0.11887 0.11887q0 0.15849 0.0396 0.23774 0 0.15849 0.0396 0.23774 0 0.0396 0.0793 0.11887l0.0793 0.11887q0.0792 0.15849 0.15849 0.23774l0.11887 0.59435q0.0793 0.39623 0.0793 0.59435v0.71322q-0.0396 0.15849-0.0396 0.31699 0 0.11887-0.0396 0.27736 0.0793 0.1585 0 0.27737l-0.0396 0.27736q-0.0793 0.39623-0.0793 0.59435-0.0396 0.1585-0.0396 0.31699 0 0.11887-0.0396 0.27736-0.0396 0.0793-0.0396 0.11887 0.0396 0.0396 0 0.11887-0.0396 0.0793-0.0396 0.11887 0 0.0396-0.0396 0.11887-0.0396 0.0793-0.0396 0.11887 0 0.0396-0.0396 0.11887-0.0396 0.0793-0.0396 0.11887 0 0.0396-0.0396 0.11887-0.0396 0.19812-0.19812 0.51511 0 0.0396-0.0396 0.0793 0 0 0 0.0396t-0.0396 0.0793q0 0 0 0.0396l-0.1585 0.15849-0.0396 0.0396q-0.0396 0-0.0396 0.0396-0.0396 0.0793-0.0396 0.11887 0 0.0396-0.0396 0.11887-0.0396 0.0792-0.0396 0.11887 0 0.0396-0.0396 0.11887-0.11887 0.23774-0.23774 0.35661-0.15849 0.27737-0.35661 0.39624-0.15849 0.11887-0.31699 0.15849-0.11887 0-0.31698 0.0793-0.11887 0.0396-0.27737 0.11887-0.15849 0.0792-0.27736 0.11887-0.11887 0.0396-0.27737 0.0792-0.15849 0.0396-0.19811-0.11887 0.0396-0.35661-0.1585-0.47548-0.11887-0.11887-0.31698-0.0396-0.11887 0.0396-0.23774 0.11887-0.0793 0.0396-0.23774 0.11887-0.1585 0.0793-0.27737 0.15849-0.11887 0.0396-0.27736 0.11887-0.11887 0.0793-0.51511 0.23774-0.23774 0.11887-0.47548 0.11887-0.0792 0-0.19811-0.0792-0.11888-0.11887-0.27737-0.23774-0.35661-0.23774-0.31699-0.31699 0-0.0793 0.0396-0.11887 0-0.0793 0.0396-0.11887 0-0.0793 0.0396-0.11887 0.0396-0.11887 0.0396-0.31699 0.0396-0.0396 0.0396-0.11887 0-0.0793-0.0396-0.11887-0.0396-0.0396-0.0396-0.0396 0-0.0396-0.0396-0.0793-0.0396-0.0396-0.0396-0.0396 0-0.0396-0.0396-0.0792t0-0.11887q0.0396-0.11887 0.0396-0.15849 0.15849-0.11887 0.23774-0.23774 0.0396-0.0396 0.0396-0.11887 0.0396-0.0396 0.0396-0.11887 0.0396-0.0396 0.0396-0.11887 0.0396-0.0396 0.0396-0.11888 0.0396-0.0792 0.0396-0.11887 0-0.0396 0.0396-0.11887l0.11887-0.35661q0.0793-0.15849 0.0793-0.31698v-0.8321q0.0396-0.0396 0.0396-0.11887 0.0396-0.0396 0.0396-0.11887 0.1585-0.5151 0-1.0302-0.0396-0.1585-0.11887-0.39624-0.0792-0.23774-0.11887-0.31699-0.19812-0.19811-0.23774-0.15849-0.15849 0.0793-0.23774 0.0793h-0.0793q0-0.0396-0.0792-0.11887v0.0396q0.0396-0.11887-0.0396-0.11887-0.0396 0-0.15849 0.11887-0.11887-0.11887-0.35661-0.11887h-0.23774q-0.0792 0-0.11887 0.0396-0.0793 0.0396-0.15849 0.11887-0.11888 0.0793-0.27737 0.1585-0.11887 0.0792-0.31699 0.15849 0 0-0.15849 0.0793-0.0793 0.0792-0.15849 0.11887l-0.11887 0.11887q-0.1585 0.0793-0.1585 0.0793h-0.23774q-0.59435 0.0792-0.79247 0.75284 0.0793-0.0793 0.11887-0.0793 0.0396-0.0396 0.0793-0.0792 0.0396-0.0396 0.0793-0.0396 0.0396-0.0396 0.0792-0.0792l0.0396 0.0396-0.1189 0.1189-0.0793 0.0396-0.15849 0.1585-0.1585 0.15849-0.0792 0.0793-0.0793 0.0792q-0.19812 0.19812-0.35661 0.39624-0.11887 0.19812-0.27736 0.39623-0.1585 0.19812-0.31699 0.43586-0.1585 0.19812-0.31699 0.39623-0.15849 0.19812-0.31699 0.43586-0.15849 0.23774-0.27736 0.47548-0.23774 0-0.35661 0.11887-0.19812 0.1585-0.31699 0.35661-0.19812 0.23774-0.35661 0.51511-0.11887 0.27736-0.27736 0.47548 0.19811-0.0396 0.47548-0.0396-0.0793 0.15849-0.11887 0.31698 0 0.11887-0.0793 0.27737l-0.0396 0.0792v0.0793l-0.0396 0.0793q0 0.0396-0.0396 0.0792v0.11887q-0.0396 0.0396-0.0396 0.11887h-0.11887l-0.1585 0.0396h-0.0792q-0.0396 0 0.0396 0 0.11887-0.0396 0.19812-0.0396 0.0792 0 0.11887 0 0.0792 0-0.0396 0-0.15849 0.0793-0.15849 0.0793-0.19812 0.11887-0.27736 0.23774 0 0.0793 0 0.0793 0.0792 0.0793 0.0792 0.11887 0.0793 0.0793 0.0793 0.11887h0.31704q0.15849-0.11887 0.31698-0.11887 0.1585-0.0396 0.43586-0.0396h0.27747l0.5151-0.0793q0.31699-0.0396 0.55473-0.0396 0.27736-0.0396 0.55473-0.0793h1.4661q0.95096 0 1.6642 0.23774 0.35661 0.11887 0.59435 0.23774 0.31698 0.23774 0.43585 0.35661 0.35661 0.35661 0.35661 0.75285 0 0.0396 0 0.0792 0.0396 0 0.0396 0.0792 0 0.0793 0 0.11887 0.0396 0.0396 0.0396 0.11887 0 0.0793 0 0.11887 0.0396 0.0396 0.0396 0.11887 0.0396 0.0396 0.0396 0.0793 0 0 0.0396 0.0396t0.0396 0.11887h0.35661q-0.0793 0.31699-0.0793 0.59435 0.0396 0.0792 0.0396 0.31699l-0.0396 0.0396v0.0396q0 0.0396-0.0396 0.0792 0 0 0 0.0396v0.35661q0 0.19811-0.0396 0.39623 0 0.19812-0.0792 0.31699v0.35661q0.0792 0.27736 0.19811 0.35661 0.19812 0.0793 0.1585 0.27736 0 0.1585 0.0396 0.35661l0.0396 0.0396-0.0792-0.0396q0.19811 0.1585 0.27736 0.23774 0.0793 0.0793 0.11887 0.23774 0.0396 0.11888 0 0.35662 0.0396 0.0792 0.0396 0.27736v0.35661q0 0.19812-0.0792 0.59435 0 0.1585-0.0396 0.31699 0 0.11887 0.0396 0.23774 0.0792 0.47548 0 0.99058-0.0793 0.51511-0.23774 1.0698-0.31699 1.1094-0.8321 2.2189-0.19811 0.43586-0.55472 0.87171-0.31699 0.39624-0.63398 0.75285l-0.35661 0.35661q-0.0792 0.0793-0.15849 0.11887-0.0793 0.0793-0.1585 0.11887-0.0792 0.0793-0.11887 0.15849-0.0396 0.0396-0.11887 0.11887-0.0792 0.0793-0.15849 0.11887 0 0.0793-0.0396 0.11887-0.11887 0.11887-0.27737 0.43586-0.0792 0.11887-0.11887 0.23774-0.0396 0.11887-0.11887 0.27737-0.27736 0.19811-0.55473 0.43585-0.23774 0.19812-0.55472 0.43586l0.0792-0.11887q0 0.0396-0.0396 0.0793z"/>
 </g>
 <path d="m12.8 1.9156c7.245-1.2063 12.384 2.6889 12.384 2.6889s4.4854-4.0048 7.8376-4.5532c-1.4058 5.0444-1.3538 6.3077-1.3538 6.3077s10.113 0.49129 15.303 9.9222c0 0-3.0278-0.54831-6.5962-0.10966 1.4058 1.3159 12.868 11.514 3.6766 28.512 0 0 1.5096-10.317-6.7087-16.677 0 0 2.924 9.7687-3.5641 22.599 0 0-0.48877-19.577-9.2477-23.634-1.1895 1.2063-6.1075 11.133-5.0261 36.136l-11.246 2.7416c-0.75695-23.468 9.6802-37.123 9.6802-37.123-2.379 0.43865-5.5711-2.6845-0.81318-7.5096-7.0288-2.8512-10.165 0-16.977 4.1671-1.2976-6.5797 9.1915-16.778 17.193-16.559-1.0814-2.0836 0.21627-2.5222-4.5417-6.9087z" fill="#102d6b" stroke="#102d6b" stroke-width=".082761px"/>
</svg>
