<?xml version="1.0" encoding="utf-8"?>
<!-- Generator: Adobe Illustrator 18.0.0, SVG Export Plug-In . SVG Version: 6.00 Build 0)  -->
<!DOCTYPE svg PUBLIC "-//W3C//DTD SVG 1.1//EN" "http://www.w3.org/Graphics/SVG/1.1/DTD/svg11.dtd">
<svg version="1.1" id="Calque_1" xmlns="http://www.w3.org/2000/svg" xmlns:xlink="http://www.w3.org/1999/xlink" x="0px" y="0px"
	 viewBox="0 0 349.1 85.9" enable-background="new 0 0 349.1 85.9" xml:space="preserve">
<g>
	<g>
		<circle fill="#E03C31" cx="42.9" cy="42.9" r="42.9"/>
		<g>
			<path fill="#FFFFFF" d="M35.3,72c0.5,0.7-0.1,1.6-0.9,1.4c-14.1-1.9-24.1-22.7-11-34.7c14.5-13.3,17.8-21.2,16.1-25.4
				c-0.2-0.6,0.3-1.1,0.8-0.9c4.8,2.4,15.7,9.6,12.1,25.2c0,0,6.3-0.1,6.5-6c0-0.6,0.7-0.8,1.1-0.5c2.7,2.5,9.4,9.7,8.5,19.2
				C67.2,64.1,57.7,71.3,50.7,73c-0.7,0.2-1.3-0.6-0.9-1.2c2-3,5.6-9.1-1.9-15.1c-5.6-4.2-6.3-8.6-5.5-11.3c0.1-0.5-0.4-0.8-0.7-0.5
				C27.3,57.1,32.5,68,35.3,72z"/>
		</g>
	</g>
	<g>
		<path fill="#323232" d="M131.1,48.8c0,10.1-4.9,14.9-13.2,14.9c-7.5,0-12.8-4.1-12.8-12.4V25.8c0-1.9,1.5-3.3,3.3-3.3
			c1.9,0,3.3,1.5,3.3,3.3v10.6c1.2-1.2,3.8-2.5,6.8-2.5C126.3,33.9,131.1,38.7,131.1,48.8z M111.7,51.3c0,4.3,2.5,6.7,6.1,6.7
			c4.3,0,6.6-3.1,6.6-9.2c0-6.1-2.4-9.2-6.6-9.2c-3.7,0-6.1,3.2-6.1,3.2V51.3z"/>
		<path fill="#323232" d="M141.2,25.8v30.3c0,0.7,0.7,1.1,1.2,1.1c1.7,0,3.1,1.4,3.1,3.1s-1.4,3.1-3.1,3.1c-4.8,0-7.9-2.7-7.9-7.9
			V25.8c0-1.9,1.5-3.3,3.3-3.3C139.7,22.4,141.2,23.9,141.2,25.8z"/>
		<path fill="#323232" d="M152.9,42.2c-0.6,0.4-1.1,0.6-1.9,0.6c-1.6,0-2.9-1.3-2.9-2.9c0-0.7,0.2-1.4,0.8-2c1.7-1.9,4.8-4,10.1-4
			c7.7,0,12.3,3.8,12.3,10.3v15.8c0,1.8-1.5,3.3-3.3,3.3c-1.8,0-3.3-1.5-3.3-3.3c-1.7,2.7-4.4,3.6-8.1,3.6c-6.1,0-10.1-3.8-10.1-9.3
			c0-5.8,4.6-8.7,10-8.7h8.1v-1.1c0-2.8-2-4.6-5.6-4.6C156.3,39.9,154.4,41.1,152.9,42.2z M164.7,52.6v-1.7h-7.2
			c-2.7,0-4.2,1.3-4.2,3.5c0,2.4,1.7,3.8,5.1,3.8C161.7,58.1,164.7,56,164.7,52.6z"/>
		<path fill="#323232" d="M188.1,33.9c5.7,0,9,2.8,10.1,4.3c0.5,0.7,0.7,1.2,0.7,1.9c0,1.7-1.3,3-3,3c-1,0-1.7-0.4-2.3-1.1
			c-0.8-0.9-2.4-2.4-5.5-2.4c-4.3,0-6.7,3.3-6.7,9.2c0,5.9,2.4,9.2,6.7,9.2c2.8,0,4.7-1.4,6.1-2.5c0.7-0.5,1.2-0.6,1.9-0.6
			c1.7,0,3,1.3,3,3c0,0.9-0.3,1.6-1.1,2.3c-1.4,1.3-4.8,3.5-9.9,3.5c-8.4,0-13.4-4.8-13.4-14.9S179.7,33.9,188.1,33.9z"/>
		<path fill="#323232" d="M220.2,62.1L211,49.7l-2,1.5v8.9c0,1.9-1.5,3.2-3.3,3.2c-1.9,0-3.3-1.4-3.3-3.2V25.6
			c0-1.9,1.4-3.2,3.3-3.2c1.9,0,3.3,1.4,3.3,3.2v18.2l11.2-8.8c0.8-0.6,1.4-0.8,2.2-0.8c1.8,0,3.2,1.4,3.2,3.2
			c0,0.9-0.4,1.9-1.2,2.5l-8.1,6.2l9.1,11.9c0.5,0.7,0.7,1.4,0.7,2c0,1.8-1.4,3.2-3.2,3.2C221.6,63.4,220.8,62.8,220.2,62.1z"/>
		<path fill="#323232" d="M230,40.4c-1.5,0-2.8-1.2-2.8-2.8c0-1.5,1.2-2.8,2.8-2.8h1.3v-3.3c0-5.8,3.8-9.4,11.8-9.4
			c1.6,0,2.9,1.3,2.9,2.9c0,1.6-1.3,2.9-2.9,2.9c-3.4,0-5.1,1.9-5.1,4.6v2.3h4.1c1.5,0,2.8,1.2,2.8,2.8c0,1.5-1.2,2.8-2.8,2.8H238
			v19.8c0,1.9-1.5,3.2-3.3,3.2c-2,0-3.3-1.4-3.3-3.2V40.4H230z"/>
		<path fill="#323232" d="M248,29.6c0-2.8,1.4-4,3.9-4c2.5,0,3.9,1.2,3.9,4c0,2.4-1.4,3.8-3.9,3.8C249.4,33.4,248,32,248,29.6z
			 M255.2,60c0,1.9-1.5,3.3-3.3,3.3c-1.9,0-3.3-1.5-3.3-3.3V38.7c0-1.9,1.5-3.3,3.3-3.3c1.9,0,3.3,1.5,3.3,3.3V60z"/>
		<path fill="#323232" d="M266.3,37.9c1.2-2.4,4.1-4,6.7-4c1.7,0,3.2,1.4,3.2,3.2c0,1.7-1.4,3.2-3.2,3.2c-4.3,0-6.7,2.7-6.7,6.9V60
			c0,1.9-1.5,3.3-3.3,3.3c-1.9,0-3.3-1.5-3.3-3.3V37.6c0-1.9,1.5-3.3,3.3-3.3c1.9,0,3.3,1.5,3.3,3.3V37.9z"/>
		<path fill="#323232" d="M290,33.9c10.5,0,12.4,8,12.4,12.3c0,2.3,0,5-3.8,5h-15.3c0,4.5,3.2,6.5,7.2,6.5c2.7,0,4.6-0.9,6.1-1.9
			c0.7-0.4,1.2-0.7,2-0.7c1.6,0,2.9,1.3,2.9,2.9c0,1-0.5,1.8-1.1,2.3c-1.1,1-4.3,3.4-10,3.4c-8.6,0-13.9-4.6-13.9-15
			C276.6,39.2,281.5,33.9,290,33.9z M283.5,45.6h12.3c0-3-1.7-6-5.8-6C286.4,39.6,283.8,41.7,283.5,45.6z"/>
		<path fill="#323232" d="M305.8,61c0-2.1,1.1-3,2.9-3c1.8,0,2.9,0.9,2.9,3c0,2.1-1.1,2.9-2.9,2.9C306.9,63.9,305.8,63,305.8,61z"/>
		<path fill="#323232" d="M314.8,29.3c0-1.8,0.9-2.5,2.4-2.5c1.5,0,2.4,0.7,2.4,2.5c0,1.5-0.9,2.4-2.4,2.4
			C315.7,31.7,314.8,30.8,314.8,29.3z M319.2,61.9c0,1.1-0.9,2-2,2c-1.1,0-2-0.9-2-2V36.6c0-1.1,0.9-2,2-2c1.1,0,2,0.9,2,2V61.9z"/>
		<path fill="#323232" d="M349.1,49.2c0,10.2-5,15-13.1,15c-8,0-13.1-4.8-13.1-15c0-10.2,5.1-15,13.1-15
			C344.1,34.2,349.1,38.9,349.1,49.2z M345.1,49.2c0-7.9-3.3-11.4-9-11.4s-9,3.5-9,11.4c0,8,3.3,11.4,9,11.4S345.1,57.2,345.1,49.2z
			"/>
	</g>
</g>
</svg>
