<svg xmlns="http://www.w3.org/2000/svg" xmlns:xlink="http://www.w3.org/1999/xlink" viewBox="0 0 670.05 170"><defs><style>.cls-1{fill:none;}.cls-2{fill:#fcfcfc;}.cls-3{clip-path:url(#clip-path);}.cls-4{fill:#f6b134;}.cls-5{fill:#91117e;}.cls-6{fill:#40a42b;}.cls-7,.cls-8{fill:#37485e;}.cls-8{font-size:120px;font-family:Lato-Light, Lato;}.cls-9{letter-spacing:0em;}.cls-10{letter-spacing:0em;}.cls-11{letter-spacing:-0.01em;}.cls-12{letter-spacing:-0.01em;}</style><clipPath id="clip-path"><rect class="cls-1" x="11.3" y="11.3" width="147.4" height="147.4"/></clipPath></defs><title>Element 5</title><g id="Ebene_2" data-name="Ebene 2"><g id="Ebene_1-2" data-name="Ebene 1"><rect class="cls-2" width="670.05" height="170"/><g class="cls-3"><path class="cls-4" d="M65.8,11.3H11.3V43.8a299.68,299.68,0,0,0,55.3-6.4c-.5-8.3-.8-17-.8-26.1"/></g><g class="cls-3"><path class="cls-5" d="M115,21.1a156.82,156.82,0,0,0,17.3-9.8H99.4c0,5.7.1,11.2.4,16.4,5.7-2.2,10.8-4.4,15.2-6.6"/></g><g class="cls-3"><path class="cls-6" d="M103.2,62.1c5.8,34.5,17.2,53.7,27.3,64.3,13.1,13.8,26,15.3,28.2,15.5V33.8c-10.8,8.1-28.9,19.3-55.5,28.3"/></g><g class="cls-3"><path class="cls-7" d="M70.6,70.9a335.25,335.25,0,0,1-59.3,6.6v81.3h105a83.58,83.58,0,0,1-7.3-6.4c-19.1-18.5-31.9-45.8-38.4-81.5"/></g><text class="cls-8" transform="translate(183.7 125.08)">tid<tspan class="cls-9" x="136.02" y="0">e</tspan><tspan class="cls-10" x="198.3" y="0">w</tspan><tspan class="cls-11" x="289.44" y="0">a</tspan><tspan class="cls-12" x="346.44" y="0">y</tspan><tspan x="405.78" y="0">s</tspan></text></g></g></svg>